<svg aria-hidden="true" focusable="false" width="20" height="18" viewBox="0 0 20 18" fill="none" xmlns="http://www.w3.org/2000/svg">
  <path fill-rule="evenodd" clip-rule="evenodd" d="M17.9442 4.92638C17.9569 5.10403 17.9569 5.28173 17.9569 5.45938C17.9569 10.8781 13.8326 17.1218 6.29448 17.1218C3.97213 17.1218 1.81479 16.4492 6.10352e-05 15.2817C0.330022 15.3198 0.647249 15.3325 0.989905 15.3325C2.90612 15.3325 4.6701 14.6853 6.07873 13.5812C4.2767 13.5431 2.76655 12.3629 2.24623 10.7386C2.50006 10.7766 2.75385 10.802 3.02037 10.802C3.38838 10.802 3.75643 10.7512 4.09905 10.6624C2.22088 10.2817 0.812209 8.63196 0.812209 6.63958V6.58884C1.35787 6.89341 1.99244 7.08376 2.66498 7.10911C1.56092 6.37306 0.8376 5.11673 0.8376 3.6954C0.8376 2.93399 1.04061 2.23603 1.39596 1.62688C3.41373 4.11419 6.44674 5.73853 9.84772 5.91622C9.78428 5.61165 9.74619 5.29442 9.74619 4.97716C9.74619 2.71825 11.5736 0.878174 13.8452 0.878174C15.0254 0.878174 16.0913 1.3731 16.8401 2.17259C17.7665 1.99493 18.6548 1.65228 19.4416 1.18274C19.137 2.13454 18.4898 2.93403 17.6396 3.44161C18.4645 3.35282 19.264 3.12435 20 2.80712C19.4417 3.61927 18.7437 4.34259 17.9442 4.92638Z"/>
</svg>