<svg aria-hidden="true" focusable="false" width="20" height="14" viewBox="0 0 20 14" fill="none" xmlns="http://www.w3.org/2000/svg">
  <path fill-rule="evenodd" clip-rule="evenodd" d="M17.4087 0.653805C18.2246 0.876027 18.8671 1.53085 19.0852 2.36229C19.4815 3.86934 19.4815 7.01364 19.4815 7.01364C19.4815 7.01364 19.4815 10.1579 19.0852 11.665C18.8671 12.4964 18.2246 13.124 17.4087 13.3462C15.9298 13.75 9.99999 13.75 9.99999 13.75C9.99999 13.75 4.07013 13.75 2.59127 13.3462C1.7754 13.124 1.13283 12.4964 0.914744 11.665C0.518494 10.1579 0.518494 7.01364 0.518494 7.01364C0.518494 7.01364 0.518494 3.86934 0.914744 2.36229C1.13283 1.53085 1.7754 0.876063 2.59127 0.653805C4.07013 0.25 9.99999 0.25 9.99999 0.25C9.99999 0.25 15.9299 0.25 17.4087 0.653805ZM8.06058 4.15885V9.86843L13.0168 7.01371L8.06058 4.15885Z"/>
</svg>
