<svg width="62" height="70" viewBox="0 0 62 70" fill="none" focusable='false' xmlns="http://www.w3.org/2000/svg">
<path d="M58.1565 29.75L46.5126 23.0253L30.5596 34.945L46.5123 46.8647L58.1959 40.1169C60.0176 39.0101 61.1048 37.0762 61.1048 34.9453C61.1048 32.8143 60.0175 30.8805 58.1565 29.75Z" fill="#FF9100"/>
<path d="M34.5935 34.9455C34.576 34.9679 20.4884 53.0807 20.477 53.0953L2.12553 67.5479C0.996072 66.4185 0.310547 64.8861 0.310547 63.1918V6.59911C0.310547 4.90526 0.996072 3.37247 2.12553 2.24329L20.477 16.7957C20.4884 16.8103 34.576 34.923 34.5935 34.9455Z" fill="#25D9F8"/>
<path d="M34.5929 34.9458L30.5596 40.1486V29.7427L34.5929 34.9458Z" fill="#00C0F1"/>
<path d="M46.5336 23.0069L34.5949 34.9456L2.12695 2.24349C2.53015 1.88036 2.93361 1.59803 3.37727 1.3157C5.31312 0.226849 7.61223 0.267047 9.50801 1.43684L30.5616 13.8111L46.5336 23.0069Z" fill="#7FE881"/>
<path d="M46.5315 23.0067L34.5929 34.9454L30.5596 30.9121V13.8109L46.5315 23.0067Z" fill="#5BC980"/>
<path d="M46.5336 46.8835L30.5616 56.0795L9.46768 68.3945C8.49969 68.959 7.45103 69.2817 6.36191 69.2817C5.35358 69.2817 4.34526 68.9994 3.37727 68.475C2.93361 68.1927 2.53015 67.9105 2.12695 67.5475L34.5949 34.9451L46.5336 46.8835Z" fill="#FF637B"/>
<path d="M46.5315 46.8835L30.5596 56.0795V38.9784L34.5929 34.9451L46.5315 46.8835Z" fill="#E63950"/>
</svg>
