<svg id="Слой_1" data-name="Слой 1" xmlns="http://www.w3.org/2000/svg" xmlns:xlink="http://www.w3.org/1999/xlink" viewBox="0 0 512 512"><defs><style>.cls-1,.cls-2{fill:none;}.cls-2{stroke-linecap:round;stroke-linejoin:round;stroke-width:33px;stroke:url(#Безымянный_градиент);}.cls-3{fill:url(#Безымянный_градиент_2);}</style><linearGradient id="Безымянный_градиент" x1="7.14" y1="-26.95" x2="9.16" y2="55.72" gradientTransform="translate(99.17 182.91) scale(19.51)" gradientUnits="userSpaceOnUse"><stop offset="0.16" stop-color="#fd749b"/><stop offset="0.66" stop-color="#281ac8"/></linearGradient><linearGradient id="Безымянный_градиент_2" x1="8.33" y1="-11.19" x2="9.33" y2="29.07" gradientTransform="translate(99.17 182.91) scale(19.51)" gradientUnits="userSpaceOnUse"><stop offset="0.22" stop-color="#fd749b"/><stop offset="0.6" stop-color="#3921c4"/></linearGradient></defs><title>icon2</title><rect class="cls-1" width="512" height="512" rx="102.4" ry="102.4"/><path class="cls-2" d="M329.38,440H448.63c25.68,0,45.87-23.24,45.87-50.36s-20.18-50.36-45.87-50.36H421.12C457.81,256,439.46,72,274.35,72,164.27,72,109.23,139.8,109.23,277.3H90.88c-40.36,0-73.38,36.8-73.38,81.34S50.52,440,90.88,440h238.5Z"/><path class="cls-3" d="M274,248.5L239.43,260l-16.78-50.25,34-11.35a27.2,27.2,0,0,1,20.7,1.31h0a26,26,0,0,1,12.16,34.77l-0.33.66h0A27.15,27.15,0,0,1,274,248.5Zm-79.33-29.32,5.06-1.69,43.9,131.4-5.06,1.69a12,12,0,0,0,7.22,23l0.4-.13,29.76-9.95,1.61,4.82a12.11,12.11,0,0,0,23-7.67h0l-1.61-4.82,2-.67,1.61,4.82a12.11,12.11,0,1,0,23-7.67l-1.64-4.93c27-10.87,41.44-40.7,32.17-68.45a54.69,54.69,0,0,0-43.56-36.58,49.89,49.89,0,0,0,1.25-35,50.63,50.63,0,0,0-48.09-34.38l-2.47-7.4h0a12.12,12.12,0,0,0-23,7.67h0l1.62,4.84-2,.67-1.62-4.84h0a12.11,12.11,0,1,0-23,7.67l1.62,4.84-4.39,1.47h0l-7.34,2.45-18,6a12,12,0,0,0,7.61,22.84v0ZM331.2,310.06h0a31.55,31.55,0,0,1-18.29,15.66l-46.39,15.49L247,282.85l34-11.35,0.69-.25,11.73-3.91a31.57,31.57,0,0,1,24,1.54h0a30.28,30.28,0,0,1,14.08,40.45Z"/></svg>