<svg width="58" height="77" viewBox="0 0 58 77" fill="none" focusable='false' xmlns="http://www.w3.org/2000/svg">
<path d="M56.8385 65.1535C56.1745 64.3303 50.4545 63.6216 46.9653 66.0712C46.4331 66.4467 46.5202 66.9665 47.1195 66.8969C49.0817 66.6656 53.4588 66.1408 54.2347 67.1356C55.0131 68.1329 53.3667 72.2513 52.6281 74.0867C52.4018 74.6437 52.8843 74.8676 53.3866 74.4498C56.6669 71.7191 57.5075 65.9842 56.8385 65.1535Z" fill="#FF8000"/>
<path d="M50.8165 68.6057C43.9823 71.508 36.5488 72.9056 29.7843 72.9056C19.7693 72.9056 10.0627 70.1625 2.22138 65.5965C1.53747 65.1936 1.02764 65.8974 1.59715 66.4122C8.86652 72.9802 18.4736 76.9295 29.1452 76.9295C36.7602 76.9295 45.5964 74.5346 51.6993 70.0382C52.7066 69.2921 51.8486 68.173 50.8165 68.6057Z" fill="#FF8000"/>
<path d="M53.2387 53.0575C51.188 50.2087 49.017 47.909 49.017 42.6662V25.1959C49.017 17.8079 49.5405 11.012 44.0917 5.91511C39.7842 1.78779 32.6622 0.337646 27.1963 0.337646C16.5391 0.337646 4.64625 4.31051 2.1321 17.4905C1.87468 18.8977 2.90437 19.6356 3.79676 19.8416L14.6942 21.0086C15.6896 20.9657 16.4361 19.9703 16.6335 18.9578C17.5516 14.4186 21.3786 12.2305 25.6518 12.2305C27.9514 12.2305 30.56 13.08 31.9329 15.1479C33.4946 17.4476 33.28 20.6053 33.28 23.2653V24.7068C26.793 25.4619 18.2981 25.9339 12.2058 28.611C5.20399 31.6229 0.25293 37.8181 0.25293 46.9137C0.25293 58.5577 7.59801 64.384 17.0282 64.384C25.0082 64.384 29.3672 62.5048 35.511 56.2323C37.5446 59.1841 38.2139 60.6256 41.938 63.7147C42.7789 64.1609 43.8429 64.1094 44.5894 63.4573L44.6237 63.4744C46.8547 61.5009 50.9134 57.9399 53.213 56.035C54.1226 55.2627 53.9681 54.0614 53.2387 53.0575ZM33.28 36.1106C33.28 40.4782 33.4002 44.1164 31.1863 47.9949C29.4101 51.1526 26.5871 53.0832 23.4294 53.0832C19.1305 53.0832 16.6335 49.814 16.6335 44.9659C16.6335 35.4155 25.1884 33.6822 33.28 33.6822V36.1106Z" fill="#FFFBF7"/>
</svg>
