<svg width="63" height="76" viewBox="0 0 63 76" fill="none" focusable='false' xmlns="http://www.w3.org/2000/svg">
<path d="M3.96316 28.1813C-2.41923 39.0589 1.63818 55.5663 8.69605 65.5754C12.2191 70.5794 15.7859 75.0713 20.6712 75.0713C20.7633 75.0713 20.8556 75.0696 20.9502 75.0659C23.2455 74.976 24.9041 74.2819 26.5078 73.6112C28.3083 72.8576 30.1704 72.0784 33.0912 72.0784C35.8699 72.0784 37.6432 72.8323 39.358 73.5611C41.0481 74.2792 42.7889 75.0222 45.3612 74.9747C50.8641 74.8741 54.2428 70.0271 57.2237 65.7512C60.3344 61.2866 61.8948 56.9518 62.4212 55.2953L62.4425 55.2294C62.5428 54.935 62.4012 54.6136 62.1138 54.4841C62.1059 54.4804 62.0767 54.4685 62.0685 54.4651C61.0995 54.0759 52.599 50.3722 52.5097 40.2776C52.4267 32.0763 58.8866 27.7332 60.1821 26.946L60.2425 26.9091C60.3829 26.8204 60.4807 26.6796 60.5138 26.5187C60.547 26.358 60.5123 26.1907 60.4183 26.0556C55.9594 19.6469 49.1253 18.681 46.3738 18.5648C45.9746 18.5257 45.5624 18.506 45.1486 18.506C41.9169 18.506 38.8211 19.7047 36.334 20.6679C34.6172 21.3328 33.1343 21.907 32.1115 21.907C30.9623 21.907 29.4709 21.3257 27.744 20.6528C25.4346 19.7526 22.817 18.7326 20.046 18.7326C19.9799 18.7326 19.9148 18.7333 19.8507 18.7345C13.4077 18.8276 7.31958 22.4479 3.96316 28.1813Z" fill="#FEFAF6"/>
<path d="M46.3775 0.92515C42.4758 1.08122 37.7954 3.44005 34.9979 6.65826C32.6204 9.36327 30.2979 13.8733 30.9098 18.4193C30.9481 18.7038 31.1838 18.9233 31.4751 18.9454C31.7385 18.9656 32.0073 18.9758 32.2751 18.9761C36.0902 18.9761 40.2058 16.9031 43.0164 13.5653C45.9745 10.0408 47.4703 5.51761 47.0179 1.46605C46.9822 1.14856 46.6978 0.912751 46.3775 0.92515Z" fill="#FEFAF6"/>
</svg>
