<svg class='visually-hidden' width='0' height='0' aria-hidden='true' focusable='false' xmlns="http://www.w3.org/2000/svg">
<defs>
  <symbol width="100%" height="100%" viewBox="0 0 29 10" id="amz-full">
    <path d="M10.849 1.23654C10.6004 0.892243 10.1937 0.73877 9.82287 0.73877C9.2993 0.73877 8.81171 1.00701 8.59644 1.5822C8.3479 1.00769 8.0002 0.73877 7.44539 0.73877C6.89872 0.73877 6.49331 1.00701 6.27668 1.5822H6.26174V0.987316C6.25631 0.905146 6.18704 0.838595 6.1008 0.8352H5.27367C5.17928 0.8352 5.10254 0.907862 5.10254 0.99886V5.55146C5.10865 5.63295 5.17656 5.69611 5.26145 5.70154H6.14901C6.24341 5.70154 6.31946 5.62752 6.31946 5.5372V3.12304C6.31946 2.59675 6.29366 1.86809 6.93064 1.86809C7.56083 1.86809 7.47866 2.61509 7.47866 3.12304V5.53652C7.47866 5.62412 7.54929 5.69407 7.63893 5.70086H8.52446C8.62021 5.70086 8.69559 5.62684 8.69559 5.53652V3.12304C8.69559 2.86431 8.68744 2.47995 8.77776 2.25042C8.86876 2.02089 9.09353 1.8776 9.30813 1.8776C9.5655 1.8776 9.76379 1.96384 9.82966 2.26943C9.87177 2.45211 9.85479 2.93086 9.85479 3.12304V5.53652C9.85479 5.62412 9.92609 5.69407 10.0144 5.70086H10.9006C10.995 5.70086 11.071 5.62684 11.071 5.53652L11.0724 2.66398C11.0724 2.17572 11.1294 1.61955 10.849 1.23654Z" fill="#FFFBF7"/>
    <path d="M22.5381 0.740723C21.2547 0.740723 20.543 1.84288 20.543 3.25946C20.543 4.66788 21.2458 5.79788 22.5381 5.79788C23.7795 5.79788 24.5666 4.6964 24.5666 3.30767C24.57 1.87072 23.8556 0.740723 22.5381 0.740723ZM22.5381 4.85939C21.8427 4.85939 21.8502 3.67166 21.8502 3.11549C21.8502 2.56068 21.8923 1.66971 22.5449 1.66971C22.8261 1.66971 23.0264 1.79331 23.1249 2.11044C23.2417 2.47443 23.258 2.93349 23.258 3.31786C23.2607 3.90187 23.2274 4.85939 22.5381 4.85939Z" fill="#FFFBF7"/>
    <path d="M16.0374 4.86958C15.8758 4.64412 15.7047 4.46212 15.7047 4.0472V2.66458C15.7047 2.07989 15.7447 1.54205 15.3135 1.13867C14.9733 0.812032 14.409 0.697266 13.9777 0.697266C13.1343 0.697266 12.1911 1.01168 11.9941 2.05476C11.9731 2.16613 12.0532 2.22453 12.1259 2.24083L12.9856 2.33319C13.0657 2.32979 13.1248 2.25102 13.1404 2.17088C13.2131 1.81165 13.5153 1.63848 13.8535 1.63848C14.0361 1.63848 14.2433 1.70571 14.3499 1.86937C14.4755 2.05137 14.4585 2.30127 14.4585 2.51179L14.4579 2.62451C13.9438 2.68359 13.2715 2.72095 12.79 2.93282C12.2338 3.17254 11.8447 3.66284 11.8447 4.38267C11.8447 5.30419 12.4247 5.76529 13.171 5.76529C13.8012 5.76529 14.1475 5.61657 14.6337 5.12016C14.794 5.35377 14.8476 5.46785 15.1424 5.71232C15.2096 5.74764 15.2945 5.74356 15.3529 5.69195L15.3542 5.69331C15.5315 5.53712 15.8527 5.2553 16.0333 5.10454C16.1046 5.04546 16.0945 4.94903 16.0374 4.86958ZM14.4579 3.52838C14.4579 3.87404 14.4674 4.16197 14.2915 4.46892C14.1516 4.71882 13.9268 4.87161 13.6796 4.87161C13.338 4.87161 13.1384 4.61288 13.1384 4.2292C13.1384 3.47337 13.8161 3.3362 14.4579 3.3362V3.52838Z" fill="#FFFBF7"/>
    <path d="M28.6448 1.27495C28.3956 0.882439 28.0051 0.738472 27.6079 0.737793C26.996 0.737793 26.6463 1.03455 26.3991 1.65728H26.3848V0.961213C26.3679 0.889909 26.3027 0.83694 26.2259 0.833545H25.4036C25.3132 0.833545 25.2406 0.898737 25.2324 0.982265L25.2338 5.53622C25.2338 5.62383 25.3037 5.69513 25.394 5.70192H26.2762C26.3719 5.70192 26.4487 5.6279 26.45 5.53622V3.08608C26.45 2.77845 26.4656 2.50206 26.592 2.22364C26.6904 2.00429 26.888 1.85964 27.1053 1.85964C27.7165 1.85964 27.6581 2.58831 27.6581 3.08608V5.55863C27.6649 5.63537 27.7349 5.69513 27.8143 5.7026H28.7046C28.7936 5.7026 28.8649 5.63809 28.8771 5.55863V2.69289C28.8771 2.25216 28.8771 1.6403 28.6448 1.27495Z" fill="#FFFBF7"/>
    <path d="M19.9663 4.46883C19.457 4.18225 18.8655 4.09804 18.3032 4.11231L19.8162 1.95552C19.9554 1.76131 20.0349 1.63975 20.0349 1.54604V0.988504C20.0349 0.890716 19.9608 0.823486 19.8665 0.823486H16.9511C16.8601 0.823486 16.7868 0.889358 16.7868 0.988504V1.63975C16.7868 1.73686 16.8601 1.80341 16.9552 1.80341H18.4791L16.7284 4.31331C16.6225 4.47426 16.6211 4.6549 16.6211 4.76083V5.42158C16.6211 5.51666 16.7291 5.62599 16.8296 5.5703C17.8217 5.04401 19.0115 5.0963 19.9079 5.56623C20.0192 5.62327 20.1225 5.5119 20.1225 5.41683V4.72145C20.1123 4.62841 20.0817 4.53266 19.9663 4.46883Z" fill="#FFFBF7"/>
    <path d="M19.3995 6.11814C19.2182 5.89336 17.6563 5.69982 16.7036 6.36872C16.5582 6.47127 16.582 6.6132 16.7457 6.59418C17.2815 6.53103 18.4766 6.38774 18.6885 6.65937C18.9011 6.93169 18.4515 8.05626 18.2498 8.55742C18.188 8.70954 18.3198 8.77066 18.457 8.65657C19.3527 7.91093 19.5822 6.34496 19.3995 6.11814Z" fill="#FF8000"/>
    <path d="M17.7618 7.06085C15.8956 7.85334 13.8658 8.23499 12.0187 8.23499C9.28403 8.23499 6.63356 7.48596 4.4924 6.23915C4.30565 6.12914 4.16643 6.32132 4.32194 6.46189C6.30692 8.25536 8.93023 9.33375 11.8442 9.33375C13.9236 9.33375 16.3364 8.67979 18.0028 7.452C18.2779 7.24828 18.0436 6.94269 17.7618 7.06085Z" fill="#FF8000"/>
    <path d="M4.40821 4.86982C4.24591 4.64437 4.0741 4.46237 4.0741 4.04745V2.66482C4.0741 2.08013 4.11552 1.54229 3.6843 1.13892C3.3434 0.812276 2.77976 0.69751 2.34718 0.69751C1.50375 0.69751 0.562536 1.01193 0.363564 2.05501C0.343191 2.16638 0.424682 2.22478 0.495307 2.24108L1.35775 2.33343C1.43652 2.33004 1.4956 2.25126 1.51122 2.17113C1.58388 1.81189 1.88676 1.63872 2.22494 1.63872C2.40694 1.63872 2.61338 1.70595 2.72203 1.86961C2.84563 2.05161 2.82865 2.30151 2.82865 2.51203V2.62612C2.31526 2.68588 1.64296 2.72323 1.16081 2.9351C0.606677 3.17346 0.214844 3.66376 0.214844 4.38359C0.214844 5.30512 0.796142 5.76622 1.54246 5.76622C2.17401 5.76622 2.51899 5.6175 3.00521 5.12108C3.16616 5.35469 3.21913 5.46878 3.51385 5.71325C3.5804 5.74856 3.66461 5.74449 3.72369 5.69288L3.7264 5.69423C3.90297 5.53804 4.22417 5.25622 4.40617 5.10547C4.47815 5.04435 4.46593 4.94928 4.40821 4.86982ZM2.82865 3.52862C2.82865 3.87428 2.83816 4.16221 2.66295 4.46916C2.52238 4.71906 2.29896 4.87186 2.04906 4.87186C1.70884 4.87186 1.51122 4.61313 1.51122 4.22944C1.51122 3.47362 2.18827 3.33644 2.82865 3.33644V3.52862Z" fill="#FFFBF7"/>
  </symbol>
  <symbol width="100%" height="100%" viewBox="0 0 58 77" id="amz">
    <path d="M56.8385 65.1535C56.1745 64.3303 50.4545 63.6216 46.9653 66.0712C46.4331 66.4467 46.5202 66.9665 47.1195 66.8969C49.0817 66.6656 53.4588 66.1408 54.2347 67.1356C55.0131 68.1329 53.3667 72.2513 52.6281 74.0867C52.4018 74.6437 52.8843 74.8676 53.3866 74.4498C56.6669 71.7191 57.5075 65.9842 56.8385 65.1535Z" fill="#FF8000"/>
    <path d="M50.8165 68.6057C43.9823 71.508 36.5488 72.9056 29.7843 72.9056C19.7693 72.9056 10.0627 70.1625 2.22138 65.5965C1.53747 65.1936 1.02764 65.8974 1.59715 66.4122C8.86652 72.9802 18.4736 76.9295 29.1452 76.9295C36.7602 76.9295 45.5964 74.5346 51.6993 70.0382C52.7066 69.2921 51.8486 68.173 50.8165 68.6057Z" fill="#FF8000"/>
    <path d="M53.2387 53.0575C51.188 50.2087 49.017 47.909 49.017 42.6662V25.1959C49.017 17.8079 49.5405 11.012 44.0917 5.91511C39.7842 1.78779 32.6622 0.337646 27.1963 0.337646C16.5391 0.337646 4.64625 4.31051 2.1321 17.4905C1.87468 18.8977 2.90437 19.6356 3.79676 19.8416L14.6942 21.0086C15.6896 20.9657 16.4361 19.9703 16.6335 18.9578C17.5516 14.4186 21.3786 12.2305 25.6518 12.2305C27.9514 12.2305 30.56 13.08 31.9329 15.1479C33.4946 17.4476 33.28 20.6053 33.28 23.2653V24.7068C26.793 25.4619 18.2981 25.9339 12.2058 28.611C5.20399 31.6229 0.25293 37.8181 0.25293 46.9137C0.25293 58.5577 7.59801 64.384 17.0282 64.384C25.0082 64.384 29.3672 62.5048 35.511 56.2323C37.5446 59.1841 38.2139 60.6256 41.938 63.7147C42.7789 64.1609 43.8429 64.1094 44.5894 63.4573L44.6237 63.4744C46.8547 61.5009 50.9134 57.9399 53.213 56.035C54.1226 55.2627 53.9681 54.0614 53.2387 53.0575ZM33.28 36.1106C33.28 40.4782 33.4002 44.1164 31.1863 47.9949C29.4101 51.1526 26.5871 53.0832 23.4294 53.0832C19.1305 53.0832 16.6335 49.814 16.6335 44.9659C16.6335 35.4155 25.1884 33.6822 33.28 33.6822V36.1106Z" fill="#FFFBF7"/>
  </symbol>
  <symbol width="100%" height="100%" viewBox="0 0 63 76" id="as">
    <path d="M3.96316 28.1813C-2.41923 39.0589 1.63818 55.5663 8.69605 65.5754C12.2191 70.5794 15.7859 75.0713 20.6712 75.0713C20.7633 75.0713 20.8556 75.0696 20.9502 75.0659C23.2455 74.976 24.9041 74.2819 26.5078 73.6112C28.3083 72.8576 30.1704 72.0784 33.0912 72.0784C35.8699 72.0784 37.6432 72.8323 39.358 73.5611C41.0481 74.2792 42.7889 75.0222 45.3612 74.9747C50.8641 74.8741 54.2428 70.0271 57.2237 65.7512C60.3344 61.2866 61.8948 56.9518 62.4212 55.2953L62.4425 55.2294C62.5428 54.935 62.4012 54.6136 62.1138 54.4841C62.1059 54.4804 62.0767 54.4685 62.0685 54.4651C61.0995 54.0759 52.599 50.3722 52.5097 40.2776C52.4267 32.0763 58.8866 27.7332 60.1821 26.946L60.2425 26.9091C60.3829 26.8204 60.4807 26.6796 60.5138 26.5187C60.547 26.358 60.5123 26.1907 60.4183 26.0556C55.9594 19.6469 49.1253 18.681 46.3738 18.5648C45.9746 18.5257 45.5624 18.506 45.1486 18.506C41.9169 18.506 38.8211 19.7047 36.334 20.6679C34.6172 21.3328 33.1343 21.907 32.1115 21.907C30.9623 21.907 29.4709 21.3257 27.744 20.6528C25.4346 19.7526 22.817 18.7326 20.046 18.7326C19.9799 18.7326 19.9148 18.7333 19.8507 18.7345C13.4077 18.8276 7.31958 22.4479 3.96316 28.1813Z" fill="#FEFAF6"/>
    <path d="M46.3775 0.92515C42.4758 1.08122 37.7954 3.44005 34.9979 6.65826C32.6204 9.36327 30.2979 13.8733 30.9098 18.4193C30.9481 18.7038 31.1838 18.9233 31.4751 18.9454C31.7385 18.9656 32.0073 18.9758 32.2751 18.9761C36.0902 18.9761 40.2058 16.9031 43.0164 13.5653C45.9745 10.0408 47.4703 5.51761 47.0179 1.46605C46.9822 1.14856 46.6978 0.912751 46.3775 0.92515Z" fill="#FEFAF6"/>
  </symbol>
  <symbol width="100%" height="100%" viewBox="0 0 45 46" id="btc">
    <path d="M22.2316 0.785164C9.96213 0.774838 0.0103343 10.7129 8.03986e-06 22.9824C-0.0103182 35.2519 9.92777 45.2037 22.1972 45.214C34.4651 45.2037 44.4099 35.2674 44.4288 22.9996C44.4288 10.737 34.4942 0.795491 22.2316 0.785164ZM22.1972 41.5174C11.9704 41.5174 3.67953 33.2264 3.67953 22.9996C3.67953 12.7727 11.9704 4.48187 22.1972 4.48187C32.4206 4.49219 40.7046 12.7762 40.7149 22.9996C40.7149 33.2264 32.4241 41.5174 22.1972 41.5174Z" fill="white"/>
    <path d="M28.1966 21.9165C29.6822 21.0792 30.4851 19.4028 30.2083 17.7212C29.8644 15.125 26.7696 14.1449 24.328 13.9386V10.0356H21.9209V13.9042H20.3047V10.0356H17.8976V13.9042H13.0488V16.3974H14.8542C15.6623 16.3974 16.0578 16.6381 16.0578 17.2914V28.0032C16.0578 28.8972 15.6107 29.1724 15.1293 29.1724H13.2895V31.7171H17.9663V35.6717H20.3906V31.7171H22.0068V35.6717H24.3624V31.7171H24.8782C29.83 31.7171 31.4806 29.2928 31.4806 25.9916C31.4411 24.0451 30.0914 22.3705 28.1966 21.9165ZM20.3046 16.5521H22.024C23.2275 16.5521 25.6003 16.7585 25.6003 18.7185C25.6828 19.9978 24.7561 21.1188 23.4854 21.2804H20.3046V16.5521ZM22.9696 28.9316V28.9144H20.3046V23.7562H23.3995C24.1217 23.7562 26.8382 23.997 26.8382 25.9227C26.8382 27.8484 25.5488 28.9316 22.9696 28.9316Z" fill="white"/>
  </symbol>
  <symbol width="100%" height="100%" viewBox="0 0 25 46" id="eth">
    <path d="M12.1729 29.7325L0 23.9417L12.1729 45.2148L24.3462 23.9417L12.1729 29.7325Z" fill="white"/>
    <path d="M23.0208 19.6265L12.1732 0.786133L1.31348 19.6482L12.1732 14.4966L23.0208 19.6265Z" fill="white"/>
    <path d="M2.25488 22.0927L12.1733 26.7908L22.1084 22.0849L12.1733 17.3872L2.25488 22.0927Z" fill="white"/>
  </symbol>
  <symbol width="100%" height="100%" viewBox="0 0 62 70" id="gp">
    <path d="M58.1565 29.75L46.5126 23.0253L30.5596 34.945L46.5123 46.8647L58.1959 40.1169C60.0176 39.0101 61.1048 37.0762 61.1048 34.9453C61.1048 32.8143 60.0175 30.8805 58.1565 29.75Z" fill="#FF9100"/>
    <path d="M34.5935 34.9455C34.576 34.9679 20.4884 53.0807 20.477 53.0953L2.12553 67.5479C0.996072 66.4185 0.310547 64.8861 0.310547 63.1918V6.59911C0.310547 4.90526 0.996072 3.37247 2.12553 2.24329L20.477 16.7957C20.4884 16.8103 34.576 34.923 34.5935 34.9455Z" fill="#25D9F8"/>
    <path d="M34.5929 34.9458L30.5596 40.1486V29.7427L34.5929 34.9458Z" fill="#00C0F1"/>
    <path d="M46.5336 23.0069L34.5949 34.9456L2.12695 2.24349C2.53015 1.88036 2.93361 1.59803 3.37727 1.3157C5.31312 0.226849 7.61223 0.267047 9.50801 1.43684L30.5616 13.8111L46.5336 23.0069Z" fill="#7FE881"/>
    <path d="M46.5315 23.0067L34.5929 34.9454L30.5596 30.9121V13.8109L46.5315 23.0067Z" fill="#5BC980"/>
    <path d="M46.5336 46.8835L30.5616 56.0795L9.46768 68.3945C8.49969 68.959 7.45103 69.2817 6.36191 69.2817C5.35358 69.2817 4.34526 68.9994 3.37727 68.475C2.93361 68.1927 2.53015 67.9105 2.12695 67.5475L34.5949 34.9451L46.5336 46.8835Z" fill="#FF637B"/>
    <path d="M46.5315 46.8835L30.5596 56.0795V38.9784L34.5929 34.9451L46.5315 46.8835Z" fill="#E63950"/>
  </symbol>
  <symbol width="100%" height="100%" viewBox="0 0 67 66" id="stm">
    <path fill-rule="evenodd" clip-rule="evenodd" d="M33.465 65.88C51.5696 65.88 66.2463 51.2032 66.2463 33.0986C66.2463 14.9939 51.5696 0.317215 33.465 0.317215C15.3603 0.317215 0.683594 14.9939 0.683594 33.0986C0.683594 35.311 0.902772 37.4723 1.3206 39.5618L20.4264 40.1184C21.6702 37.7505 23.8035 35.8521 26.5349 34.9495L26.7385 25.7227C26.7187 25.668 26.698 25.6138 26.6773 25.5596C26.6361 25.4516 26.5949 25.3437 26.5607 25.2318C24.6235 18.899 28.2083 12.1883 34.5664 10.2433C40.9238 8.29863 47.6502 11.8552 49.5874 18.188C51.1221 23.2051 49.185 28.4487 45.159 31.3833L39.4382 40.3431C39.6828 40.8437 39.9032 41.3611 40.071 41.9096C41.7878 47.522 38.6122 53.47 32.9798 55.1929C28.1207 56.6793 23.0275 54.5343 20.6135 50.318L5.29406 49.8721C11.0146 59.459 21.4899 65.88 33.465 65.88ZM40.0019 28.1605C43.53 27.0812 45.5187 23.3554 44.4435 19.8404C43.3682 16.3253 39.6357 14.3504 36.1076 15.4296C32.5772 16.5096 30.5891 20.2344 31.6643 23.7495C32.7396 27.2645 36.47 29.2409 40.0019 28.1605ZM40.7694 30.6556C35.8312 32.1662 30.6085 29.403 29.1038 24.4841C27.5984 19.5628 30.3815 14.3507 35.3197 12.8401C40.257 11.3298 45.4829 14.092 46.9883 19.0132C48.493 23.9322 45.7075 29.145 40.7694 30.6556ZM26.4781 39.6045C30.2372 38.4546 34.2141 40.5594 35.3595 44.3038C36.5049 48.0483 34.3861 52.0178 30.6268 53.1669C27.5659 54.1032 24.3613 52.883 22.6582 50.3762L27.1819 50.5084C29.9866 51.0573 32.715 49.237 33.2715 46.435C33.8286 43.6379 32.0074 40.9232 29.2005 40.3724L25.0029 40.2504C25.4611 39.9877 25.9503 39.7659 26.4781 39.6045Z" fill="white"/>
  </symbol>
  <symbol width="100%" height="100%" viewBox="0 0 85 50" id="etc">
    <path d="M82.2107 15.4508C83.1851 15.4508 83.9751 14.6614 83.9751 13.687L83.9757 5.45976C83.9757 3.78918 82.6216 2.43445 80.9504 2.43445L3.45819 2.42871C1.78696 2.42871 0.432878 3.78343 0.43224 5.45402V13.6806C0.43224 14.655 1.22159 15.445 2.19599 15.4456C3.17104 15.4456 3.96039 16.2356 3.96039 17.21L3.95911 33.4233C3.95911 34.3977 3.16912 35.1877 2.19472 35.1877C1.22031 35.1877 0.430326 35.9777 0.430326 36.9521L0.429688 45.1793C0.429688 46.8499 1.78441 48.204 3.455 48.2046L80.9479 48.2097C82.6185 48.2097 83.9732 46.8557 83.9732 45.1851L83.9738 36.9578C83.9738 35.9834 83.1838 35.1934 82.2094 35.1934C81.235 35.1934 80.445 34.4035 80.445 33.4284L80.4463 17.2151C80.4463 16.2407 81.2363 15.4508 82.2107 15.4508Z" fill="url(#etc0_linear)"/>
    <path d="M0.430326 37.5273L0.429688 45.1796C0.429688 46.8502 1.78377 48.2043 3.45436 48.2049L80.9472 48.2101C82.6185 48.2101 83.9725 46.856 83.9725 45.1854L83.9732 37.528H0.430326V37.5273Z" fill="url(#etc1_linear)"/>
    <path d="M3.8291 25.8325L9.38391 31.3873V25.8325H3.8291Z" fill="url(#etc2_linear)"/>
    <path d="M26.3994 2.59863L32.4137 8.61288H26.3994V2.59863Z" fill="url(#etc3_linear)"/>
    <path d="M75.4686 42.6138H9.68898C8.59334 42.6138 7.70508 41.7262 7.70508 40.6299V10.0112C7.70508 8.91487 8.59334 8.02661 9.68898 8.02661H75.4686C76.5642 8.02661 77.4525 8.91487 77.4525 10.0112V40.6299C77.4525 41.7255 76.5642 42.6138 75.4686 42.6138Z" fill="url(#etc4_linear)"/>
    <path d="M35.1361 13.3497C34.0028 12.0779 32.1191 11.5865 30.439 12.337C28.7958 13.0721 27.2165 14.0324 25.7718 14.8352C24.8982 15.3208 24.1822 15.8109 23.5435 16.299C22.8524 15.9793 22.0828 15.8 21.2718 15.8C20.4199 15.8 19.6152 15.9966 18.898 16.3463C18.2669 15.876 17.5592 15.405 16.7029 14.9392C15.2505 14.1499 13.6629 13.2042 12.0127 12.485C9.70848 11.4806 7.04243 12.7958 6.44451 15.2372C6.0157 16.9888 7.96323 18.7226 7.94472 20.4647C7.94472 20.4647 5.99464 24.4031 6.49684 26.3743C6.70423 27.1891 7.14325 27.8745 7.72075 28.3888L24.0878 44.7558C24.1924 44.8745 24.3048 44.9856 24.4215 45.0902C24.7482 45.4584 25.1375 45.7615 25.5669 45.988C25.632 46.0231 25.6984 46.0557 25.7654 46.0863C25.768 46.0876 25.7705 46.0889 25.7731 46.0895C25.8375 46.1195 25.9026 46.1476 25.969 46.1737C25.9741 46.1757 25.9792 46.1776 25.9843 46.1795C26.0474 46.2044 26.1113 46.228 26.1757 46.2497C26.184 46.2522 26.1917 46.2548 26.2 46.2573C26.2612 46.2777 26.3238 46.2963 26.3863 46.3141C26.3971 46.3167 26.408 46.3199 26.4188 46.3224C26.4788 46.339 26.5394 46.3537 26.6001 46.3671C26.6135 46.3703 26.6269 46.3728 26.6403 46.376C26.699 46.3881 26.7577 46.399 26.8164 46.4086C26.8323 46.4111 26.8483 46.4137 26.8642 46.4162C26.921 46.4252 26.9778 46.4322 27.0353 46.4386C27.0531 46.4405 27.0716 46.4424 27.0901 46.4443C27.145 46.45 27.1999 46.4532 27.2554 46.4564C27.2758 46.4577 27.2962 46.459 27.3173 46.4596C27.3703 46.4622 27.4232 46.4628 27.4768 46.4628C27.4992 46.4628 27.5221 46.4628 27.5451 46.4622C27.5962 46.4615 27.6478 46.459 27.6989 46.4564C27.7238 46.4545 27.7487 46.4539 27.7736 46.452C27.8233 46.4481 27.8725 46.443 27.9222 46.4373C27.949 46.4341 27.9752 46.4315 28.0014 46.4283C28.0499 46.422 28.0984 46.4137 28.1462 46.4054C28.1743 46.4009 28.2017 46.3971 28.2292 46.3913C28.2764 46.3824 28.3236 46.3716 28.3715 46.3607C28.3995 46.3543 28.4276 46.3486 28.4557 46.3416C28.5036 46.3294 28.5508 46.3154 28.598 46.3014C28.6254 46.2937 28.6535 46.2867 28.681 46.2777C28.732 46.2618 28.7824 46.2433 28.8322 46.2254C28.8564 46.2171 28.8807 46.2095 28.9043 46.2005C28.9783 46.1725 29.0523 46.1418 29.1257 46.1093C30.1525 45.6505 31.1543 45.103 32.1147 44.5606C32.3061 44.4521 32.4969 44.3443 32.6851 44.2371C33.0623 44.0226 33.4317 43.8121 33.7929 43.6111C34.3008 43.3284 34.7565 43.0444 35.1744 42.7605C35.1948 42.7464 35.214 42.7324 35.2344 42.7183C36.1074 43.3207 37.166 43.6742 38.3069 43.6742C39.4836 43.6742 40.5723 43.2977 41.4605 42.6609C41.8842 42.9442 42.3462 43.2269 42.8618 43.507C43.0437 43.606 43.2275 43.7074 43.4138 43.8108C44.5273 44.4272 45.7116 45.1049 46.9362 45.6817C47.1404 45.7781 47.3459 45.8719 47.552 45.9612C47.626 45.9938 47.7 46.0231 47.774 46.0506C47.7976 46.0595 47.8213 46.0665 47.8449 46.0748C47.8468 46.0755 47.8487 46.0761 47.8506 46.0767C47.8742 46.085 47.8972 46.0927 47.9208 46.1004C47.947 46.1087 47.9725 46.1182 47.998 46.1259C48.0255 46.1342 48.0529 46.1412 48.0797 46.1488C48.1263 46.1616 48.1722 46.175 48.2188 46.1865C48.2233 46.1878 48.2265 46.1884 48.2309 46.1897C48.2565 46.1954 48.282 46.1999 48.3075 46.2056C48.3554 46.2165 48.4032 46.2267 48.4511 46.2356C48.4772 46.2407 48.5028 46.2439 48.5289 46.2484C48.5506 46.2516 48.5717 46.2554 48.5934 46.2586C48.6221 46.2624 48.6508 46.2669 48.6789 46.2701C48.705 46.2733 48.7312 46.2758 48.7574 46.2784C48.8033 46.2829 48.8493 46.288 48.8946 46.2911C48.9022 46.2918 48.9092 46.2924 48.9169 46.2924C48.9386 46.2937 48.9597 46.2943 48.9814 46.295C49.033 46.2975 49.0841 46.2994 49.1358 46.3001C49.1587 46.3001 49.1811 46.3001 49.2041 46.2994H49.2111C49.2289 46.2994 49.2462 46.2994 49.264 46.2988C49.2972 46.2982 49.3304 46.2969 49.3636 46.2956C49.384 46.2943 49.4051 46.2931 49.4255 46.2918C49.4727 46.2886 49.5193 46.2854 49.5665 46.2809C49.5767 46.2797 49.5876 46.2784 49.5978 46.2771C49.6137 46.2758 49.6297 46.2739 49.645 46.2714C49.7024 46.265 49.7592 46.2573 49.816 46.2478C49.832 46.2452 49.8473 46.2427 49.8632 46.2401C49.8722 46.2382 49.8817 46.2369 49.8907 46.235C49.9002 46.2337 49.9104 46.2318 49.92 46.2299C49.9602 46.2229 49.9998 46.2139 50.04 46.205C50.0527 46.2024 50.0662 46.1993 50.0789 46.1961C50.1268 46.1852 50.1746 46.1737 50.2225 46.161C50.2333 46.1578 50.2448 46.1546 50.2557 46.1514C50.2576 46.1508 50.2595 46.1501 50.2608 46.1501C50.2716 46.1469 50.2818 46.1437 50.292 46.1412C50.3552 46.1233 50.4178 46.1035 50.4796 46.0825C50.4873 46.0799 50.495 46.0774 50.502 46.0748C50.5664 46.0525 50.6302 46.0282 50.6941 46.0027C50.6992 46.0008 50.7043 45.9989 50.7094 45.9963C50.7566 45.9772 50.8032 45.9574 50.8491 45.9364C50.8568 45.9325 50.8644 45.9293 50.8721 45.9261C50.8829 45.921 50.8932 45.9159 50.904 45.9108C50.9066 45.9096 50.9091 45.9089 50.9117 45.9076C51.0922 45.8221 51.2658 45.7239 51.4324 45.6128C51.4362 45.6103 51.44 45.6077 51.4438 45.6052C51.6251 45.4839 51.7967 45.3474 51.9569 45.1981C51.9582 45.1968 51.9594 45.1955 51.9607 45.1942C52.5101 44.6793 52.9249 44.0048 53.1195 43.2097C53.6032 41.2347 51.6168 37.3141 51.6168 37.3141C51.5823 35.5721 53.5133 33.8204 53.0678 32.0733C52.8592 31.2546 52.4176 30.5667 51.8376 30.0511L35.1361 13.3497Z" fill="url(#etc5_linear)"/>
    <path d="M0.379883 24.2012V17.2119C0.379883 16.3102 1.11053 15.5796 2.01282 15.5796H82.3862C83.2878 15.5796 84.0191 16.3102 84.0191 17.2119V24.2012C84.0191 25.1028 83.2885 25.8341 82.3862 25.8341H2.01282C1.11053 25.8341 0.379883 25.1028 0.379883 24.2012H0.379883Z" fill="url(#etc6_linear)"/>
    <path d="M29.8672 25.8341H46.2757L36.0205 15.5796H29.8672V25.8341Z" fill="url(#etc7_linear)"/>
    <path d="M24.771 49.6755H17.7817C16.8801 49.6755 16.1494 48.9442 16.1494 48.0425V2.59778C16.1494 1.69613 16.8801 0.964844 17.7817 0.964844H24.771C25.6727 0.964844 26.4039 1.69549 26.4039 2.59778V48.0425C26.4039 48.9442 25.6727 49.6755 24.771 49.6755Z" fill="url(#etc8_linear)"/>
    <path d="M16.1494 26.871L26.4046 37.1262V22.415H16.1494V26.871Z" fill="url(#etc9_linear)"/>
    <path d="M19.9502 17.1766C19.0518 16.4338 18.0646 15.6789 16.7029 14.9387C15.2505 14.1487 13.6622 13.203 12.0121 12.4839C9.70784 11.4801 7.04243 12.7953 6.44451 15.2367C6.0157 16.9883 7.96323 18.7221 7.94472 20.4642C7.94472 20.4642 5.99464 24.4026 6.49684 26.3731C7.11709 28.8088 9.79526 30.0991 12.0899 29.0736C13.7331 28.3391 15.3124 27.3788 16.7571 26.5754C18.1118 25.8218 19.092 25.058 19.9841 24.3069C22.1996 22.441 22.1837 19.0214 19.9502 17.1766Z" fill="url(#etc10_linear)"/>
    <path d="M34.5838 20.2779C34.5494 18.5359 36.4803 16.7836 36.0349 15.0364C35.4146 12.6007 32.7365 11.3105 30.4418 12.3359C28.7987 13.0704 27.2193 14.0308 25.7746 14.8341C24.4199 15.5878 23.4397 16.3516 22.5483 17.102C20.3321 18.9685 20.3487 22.3882 22.5815 24.233C23.48 24.9751 24.4671 25.73 25.8295 26.4708C27.2818 27.2608 28.8695 28.2059 30.5197 28.925C32.8239 29.9294 35.4899 28.6143 36.0872 26.1728C36.5709 24.1979 34.5838 20.2779 34.5838 20.2779Z" fill="url(#etc11_linear)"/>
    <path d="M19.9851 24.3084C20.6909 23.7137 21.1688 22.9613 21.4222 22.1528C17.3242 22.5395 10.9258 23.9587 8.53223 28.9532C9.5915 29.5135 10.8933 29.6099 12.091 29.0745C13.7342 28.34 15.3135 27.3796 16.7582 26.5769C18.1135 25.8233 19.0931 25.0588 19.9851 24.3084Z" fill="url(#etc12_linear)"/>
    <path d="M9.64261 20.4669C9.65027 22.1069 9.86595 26.6177 14.3896 27.9112C15.2095 27.4594 16.0027 26.9962 16.7589 26.5756C18.1142 25.8227 19.0938 25.0582 19.9858 24.3078C21.2276 23.2619 21.7681 21.7279 21.6105 20.2564C21.6105 20.2564 19.2361 18.9884 18.1819 18.4843C12.4867 15.7583 9.63176 18.1595 9.64261 20.4669Z" fill="url(#etc13_linear)"/>
    <path d="M22.5805 24.2344C21.869 23.6461 21.384 22.8989 21.123 22.0923C25.2242 22.4407 31.636 23.7999 34.0762 28.7721C33.022 29.3419 31.7215 29.4504 30.5187 28.9265C28.8685 28.2074 27.2802 27.2617 25.8285 26.4723C24.4661 25.7315 23.479 24.9766 22.5805 24.2344Z" fill="url(#etc14_linear)"/>
    <path d="M32.8878 20.297C32.8954 21.9369 32.7225 26.4497 28.211 27.7853C27.3872 27.3411 26.5896 26.8855 25.8289 26.472C24.4672 25.7318 23.48 24.9769 22.5816 24.2342C21.3296 23.2004 20.7751 21.6715 20.9186 20.1981C20.9186 20.1981 23.2809 18.9084 24.3306 18.3941C30.0003 15.6151 32.8769 17.9902 32.8878 20.297Z" fill="url(#etc15_linear)"/>
    <path d="M35.3767 27.6619L25.2345 17.5203C24.7591 17.0111 24.1854 16.5951 23.5454 16.2983C23.1938 16.5676 22.8651 16.8363 22.548 17.103C20.3324 18.9689 20.3484 22.3885 22.5818 24.234C23.4803 24.9761 24.4674 25.731 25.8298 26.4718C27.2815 27.2612 28.8698 28.2069 30.52 28.926C32.2946 29.6994 34.2829 29.0958 35.3767 27.6619Z" fill="url(#etc16_linear)"/>
    <path d="M26.6883 21.2203C26.6883 24.2131 24.2616 26.6398 21.2688 26.6398C18.2754 26.6398 15.8486 24.2131 15.8486 21.2203C15.8486 18.2269 18.2754 15.8008 21.2688 15.8008C24.2616 15.8008 26.6883 18.2269 26.6883 21.2203Z" fill="url(#etc17_linear)"/>
    <path d="M28.2373 31.3464C28.2373 31.1997 28.3235 31.0733 28.4945 30.9668C28.6661 30.8608 28.8499 30.8079 29.0458 30.8079C29.2908 30.8079 29.4414 30.8978 29.4989 31.0771L31.5191 38.0562L33.5273 31.0771C33.5834 30.8978 33.7296 30.8079 33.965 30.8079C34.1597 30.8079 34.3441 30.8608 34.5189 30.9668C34.6931 31.072 34.7806 31.1984 34.7806 31.3445C34.7806 31.3688 34.7723 31.4058 34.7563 31.4543L32.3334 39.3893C32.2925 39.5284 32.1949 39.6375 32.0411 39.7153C31.8873 39.7932 31.7131 39.8321 31.5191 39.8321C31.0699 39.8321 30.7968 39.6847 30.6985 39.3912L28.2494 31.4568C28.2418 31.4319 28.2373 31.3956 28.2373 31.3464Z" fill="url(#etc18_linear)"/>
    <path d="M35.6729 37.1016V33.5384C35.6729 32.5997 35.9217 31.9099 36.4194 31.469C36.9172 31.028 37.5827 30.8079 38.4155 30.8079C39.2482 30.8079 39.9151 31.028 40.4172 31.469C40.9194 31.9099 41.1702 32.5997 41.1702 33.5384V37.1016C41.1702 38.0403 40.9194 38.7301 40.4172 39.1704C39.9151 39.6113 39.2482 39.8321 38.4155 39.8321C37.5827 39.8321 36.9172 39.6113 36.4194 39.1704C35.9211 38.7301 35.6729 38.0403 35.6729 37.1016ZM36.9701 37.1016C36.9701 38.1545 37.4519 38.6809 38.4155 38.6809C38.8807 38.6809 39.2399 38.5501 39.4926 38.2891C39.7453 38.0282 39.8723 37.6319 39.8723 37.1016V33.5384C39.8723 33.0074 39.7459 32.6118 39.4926 32.3508C39.2399 32.0892 38.8807 31.959 38.4155 31.959C37.4519 31.959 36.9701 32.4855 36.9701 33.5384V37.1016Z" fill="url(#etc19_linear)"/>
    <path d="M42.6533 37.1022V31.2246C42.6533 31.0861 42.7165 30.9814 42.8428 30.9125C42.9692 30.843 43.1223 30.8085 43.3023 30.8085C43.4816 30.8085 43.6347 30.843 43.7611 30.9125C43.8881 30.9814 43.9512 31.0861 43.9512 31.2246V37.1022C43.9512 37.6325 44.0814 38.0288 44.3431 38.2898C44.604 38.5508 44.9716 38.6816 45.4451 38.6816C46.4488 38.6816 46.951 38.1551 46.951 37.1016V31.2246C46.951 31.0854 47.0142 30.9814 47.1412 30.9119C47.2675 30.843 47.4201 30.8079 47.6 30.8079C47.7793 30.8079 47.9325 30.843 48.0594 30.9119C48.1858 30.9814 48.249 31.0854 48.249 31.2246V37.1016C48.249 38.0409 47.9937 38.7301 47.4839 39.171C46.9734 39.612 46.2938 39.8321 45.4451 39.8321C44.604 39.8321 43.9289 39.612 43.4184 39.171C42.9079 38.7307 42.6533 38.0409 42.6533 37.1022Z" fill="url(#etc20_linear)"/>
    <path d="M49.7412 37.1016V33.5384C49.7412 32.5997 49.992 31.9099 50.4942 31.469C50.9964 31.028 51.6511 30.8079 52.4596 30.8079C53.2923 30.8079 53.9636 31.014 54.4735 31.4256C54.984 31.8384 55.2386 32.3706 55.2386 33.0234C55.2386 33.285 55.1901 33.4624 55.0918 33.5562C54.9942 33.65 54.8264 33.6973 54.5896 33.6973C54.1653 33.6973 53.949 33.5543 53.9407 33.2684C53.8922 32.3955 53.4142 31.9584 52.5081 31.9584C51.5286 31.9584 51.0391 32.4848 51.0391 33.5384V37.1016C51.0391 38.1545 51.5369 38.6809 52.533 38.6809C52.8265 38.6809 53.0715 38.6382 53.2674 38.5527C53.4633 38.4665 53.6044 38.3421 53.6899 38.1787C53.7754 38.016 53.8347 37.8731 53.8673 37.7506C53.8998 37.6281 53.9247 37.4768 53.9407 37.2975C53.9655 37.0116 54.1774 36.8687 54.5775 36.8687C54.8142 36.8687 54.984 36.9159 55.0861 37.0097C55.1875 37.1035 55.2386 37.2809 55.2386 37.5425C55.2386 38.2202 54.9814 38.7709 54.4677 39.1953C53.9534 39.6196 53.2796 39.8321 52.4475 39.8321C51.639 39.8321 50.9862 39.6113 50.4884 39.1704C49.9901 38.7301 49.7412 38.0403 49.7412 37.1016Z" fill="url(#etc21_linear)"/>
    <path d="M56.4502 39.3299V31.2239C56.4502 31.0854 56.5134 30.9814 56.6397 30.9119C56.7661 30.843 56.9192 30.8079 57.0992 30.8079C57.2785 30.8079 57.4316 30.8423 57.558 30.9119C57.6843 30.9814 57.7481 31.0854 57.7481 31.2239V34.6034H60.797V31.2239C60.797 31.0854 60.8602 30.9814 60.9866 30.9119C61.1129 30.843 61.2661 30.8079 61.446 30.8079C61.6253 30.8079 61.7785 30.8423 61.9048 30.9119C62.0312 30.9814 62.0943 31.0854 62.0943 31.2239V39.3299C62.0943 39.4607 62.0312 39.5647 61.9048 39.6419C61.7785 39.7198 61.6253 39.7587 61.446 39.7587C61.2744 39.7587 61.1231 39.7198 60.9929 39.6419C60.8621 39.5647 60.797 39.4607 60.797 39.3299V35.632H57.7481V39.3299C57.7481 39.4607 57.6843 39.5647 57.558 39.6419C57.4316 39.7198 57.2785 39.7587 57.0992 39.7587C56.9275 39.7587 56.7763 39.7198 56.6461 39.6419C56.5153 39.5647 56.4502 39.4607 56.4502 39.3299Z" fill="url(#etc22_linear)"/>
    <path d="M63.7129 39.3299V31.236C63.7129 31.1059 63.7703 31.0018 63.8845 30.924C63.9988 30.8461 64.1334 30.8079 64.2885 30.8079H68.6474C68.7866 30.8079 68.8925 30.8647 68.9659 30.9789C69.0392 31.0931 69.0763 31.2239 69.0763 31.3707C69.0763 31.534 69.0373 31.6731 68.9601 31.7874C68.8823 31.9016 68.7783 31.9584 68.6474 31.9584H65.0108V34.7629H66.8965C67.0273 34.7629 67.1313 34.814 67.2091 34.9154C67.2863 35.0182 67.3253 35.1419 67.3253 35.2894C67.3253 35.4195 67.2883 35.5363 67.2149 35.6384C67.1415 35.7405 67.0356 35.7909 66.8965 35.7909H65.0108V38.6076H68.6474C68.7783 38.6076 68.8823 38.6644 68.9601 38.7786C69.0373 38.8934 69.0763 39.0319 69.0763 39.1953C69.0763 39.342 69.0392 39.4728 68.9659 39.5871C68.8925 39.7013 68.7866 39.7581 68.6474 39.7581H64.2885C64.1334 39.7581 63.9988 39.7198 63.8845 39.6419C63.7703 39.5647 63.7129 39.4607 63.7129 39.3299Z" fill="url(#etc23_linear)"/>
    <path d="M70.1162 39.3299V31.2239C70.1162 31.1097 70.1564 31.0121 70.2387 30.9304C70.3198 30.8487 70.4225 30.8079 70.5444 30.8079H72.871C74.7483 30.8079 75.687 31.6406 75.687 33.3054C75.687 33.9965 75.5319 34.5389 75.2218 34.9333C74.9117 35.3276 74.4911 35.5899 73.9609 35.7201L75.6748 38.9477C75.7074 39.0051 75.724 39.0664 75.724 39.1321C75.724 39.2955 75.6404 39.4467 75.4732 39.5864C75.3054 39.7255 75.128 39.7951 74.9404 39.7951C74.7279 39.7951 74.5569 39.6681 74.426 39.4148L72.638 35.9013H71.4014V39.3286C71.4014 39.4594 71.3382 39.5641 71.2119 39.6419C71.0855 39.7198 70.9324 39.7587 70.7524 39.7587C70.5814 39.7587 70.4321 39.7198 70.3057 39.6419C70.1794 39.5647 70.1162 39.4607 70.1162 39.3299ZM71.402 34.8727H72.871C73.883 34.8727 74.3897 34.3877 74.3897 33.4158C74.3897 32.4446 73.883 31.9584 72.871 31.9584H71.402V34.8727Z" fill="url(#etc24_linear)"/>
  </symbol>

  <linearGradient id="etc0_linear" x1="20.5359" y1="3.6527" x2="77.0809" y2="60.1977" gradientUnits="userSpaceOnUse">
    <stop offset="0" stop-color="#FFD459"/>
    <stop offset="0.2296" stop-color="#FFD355"/>
    <stop offset="0.4362" stop-color="#FFCF4A"/>
    <stop offset="0.634" stop-color="#FFC838"/>
    <stop offset="0.825" stop-color="#FFBF1F"/>
    <stop offset="1" stop-color="#FFB400"/>
  </linearGradient>
  <linearGradient id="etc1_linear" x1="42.2016" y1="42.249" x2="42.2016" y2="50.644" gradientUnits="userSpaceOnUse">
    <stop offset="0" stop-color="#E58200" stop-opacity="0"/>
    <stop offset="0.0396" stop-color="#E27F04" stop-opacity="0.039216"/>
    <stop offset="0.4671" stop-color="#C15D2F" stop-opacity="0.466667"/>
    <stop offset="0.8016" stop-color="#AD4949" stop-opacity="0.8"/>
    <stop offset="1" stop-color="#A64153"/>
  </linearGradient>
  <linearGradient id="etc2_linear" x1="8.15984" y1="29.3831" x2="5.94917" y2="24.3301" gradientUnits="userSpaceOnUse">
    <stop offset="0" stop-color="#E58200" stop-opacity="0"/>
    <stop offset="0.0396" stop-color="#E27F04" stop-opacity="0.039216"/>
    <stop offset="0.4671" stop-color="#C15D2F" stop-opacity="0.466667"/>
    <stop offset="0.8016" stop-color="#AD4949" stop-opacity="0.8"/>
    <stop offset="1" stop-color="#A64153"/>
  </linearGradient>
  <linearGradient id="etc3_linear" x1="30.5849" y1="8.56334" x2="17.7658" y2="-0.495526" gradientUnits="userSpaceOnUse">
    <stop offset="0" stop-color="#E58200" stop-opacity="0"/>
    <stop offset="0.0396" stop-color="#E27F04" stop-opacity="0.039216"/>
    <stop offset="0.4671" stop-color="#C15D2F" stop-opacity="0.466667"/>
    <stop offset="0.8016" stop-color="#AD4949" stop-opacity="0.8"/>
    <stop offset="1" stop-color="#A64153"/>
  </linearGradient>
  <linearGradient id="etc4_linear" x1="25.0077" y1="7.74705" x2="70.8636" y2="53.6094" gradientUnits="userSpaceOnUse">
    <stop offset="0" stop-color="#FFFCF8"/>
    <stop offset="0.1875" stop-color="#FAF8F6"/>
    <stop offset="0.4041" stop-color="#ECEEF2"/>
    <stop offset="0.6353" stop-color="#D5DCEA"/>
    <stop offset="0.875" stop-color="#B5C4DF"/>
    <stop offset="1" stop-color="#A1B5D8"/>
  </linearGradient>
  <linearGradient id="etc5_linear" x1="33.2464" y1="37.1416" x2="18.889" y2="4.3246" gradientUnits="userSpaceOnUse">
    <stop offset="0" stop-color="#A1B5D8" stop-opacity="0"/>
    <stop offset="0.0343" stop-color="#9FB3D5" stop-opacity="0.035294"/>
    <stop offset="0.4515" stop-color="#8898AF" stop-opacity="0.45098"/>
    <stop offset="0.788" stop-color="#798898" stop-opacity="0.788235"/>
    <stop offset="1" stop-color="#748290"/>
  </linearGradient>
  <linearGradient id="etc6_linear" x1="42.1995" y1="18.6554" x2="42.1995" y2="29.7653" gradientUnits="userSpaceOnUse">
    <stop offset="0" stop-color="#FF6E3A"/>
    <stop offset="0.1596" stop-color="#FF6440"/>
    <stop offset="0.4266" stop-color="#FF4B52"/>
    <stop offset="0.7662" stop-color="#FF216E"/>
    <stop offset="1" stop-color="#FF0084"/>
  </linearGradient>
  <linearGradient id="etc7_linear" x1="39.7806" y1="27.5433" x2="27.759" y2="15.5217" gradientUnits="userSpaceOnUse">
    <stop offset="0" stop-color="#E58200" stop-opacity="0"/>
    <stop offset="0.4384" stop-color="#C4602C" stop-opacity="0.439216"/>
    <stop offset="0.7953" stop-color="#AE4948" stop-opacity="0.796078"/>
    <stop offset="1" stop-color="#A64153"/>
  </linearGradient>
  <linearGradient id="etc8_linear" x1="21.2765" y1="22.4936" x2="21.2765" y2="60.7731" gradientUnits="userSpaceOnUse">
    <stop offset="0" stop-color="#FF6E3A"/>
    <stop offset="0.1596" stop-color="#FF6440"/>
    <stop offset="0.4266" stop-color="#FF4B52"/>
    <stop offset="0.7662" stop-color="#FF216E"/>
    <stop offset="1" stop-color="#FF0084"/>
  </linearGradient>
  <linearGradient id="etc9_linear" x1="27.8417" y1="31.2077" x2="16.5854" y2="19.9514" gradientUnits="userSpaceOnUse">
    <stop offset="0" stop-color="#E58200" stop-opacity="0"/>
    <stop offset="0.4384" stop-color="#C4602C" stop-opacity="0.439216"/>
    <stop offset="0.7953" stop-color="#AE4948" stop-opacity="0.796078"/>
    <stop offset="1" stop-color="#A64153"/>
  </linearGradient>
  <linearGradient id="etc10_linear" x1="16.0176" y1="30.6383" x2="11.447" y2="13.3594" gradientUnits="userSpaceOnUse">
    <stop offset="0" stop-color="#FF0084"/>
    <stop offset="0.2338" stop-color="#FF216E"/>
    <stop offset="0.5734" stop-color="#FF4B52"/>
    <stop offset="0.8404" stop-color="#FF6440"/>
    <stop offset="1" stop-color="#FF6E3A"/>
  </linearGradient>
  <linearGradient id="etc11_linear" x1="27.9096" y1="31.458" x2="29.4703" y2="10.2774" gradientUnits="userSpaceOnUse">
    <stop offset="0" stop-color="#FF0084"/>
    <stop offset="0.2338" stop-color="#FF216E"/>
    <stop offset="0.5734" stop-color="#FF4B52"/>
    <stop offset="0.8404" stop-color="#FF6440"/>
    <stop offset="1" stop-color="#FF6E3A"/>
  </linearGradient>
  <linearGradient id="etc12_linear" x1="15.0628" y1="27.5709" x2="14.7406" y2="21.0157" gradientUnits="userSpaceOnUse">
    <stop offset="0" stop-color="#E58200" stop-opacity="0"/>
    <stop offset="0.4384" stop-color="#C4602C" stop-opacity="0.439216"/>
    <stop offset="0.7953" stop-color="#AE4948" stop-opacity="0.796078"/>
    <stop offset="1" stop-color="#A64153"/>
  </linearGradient>
  <linearGradient id="etc13_linear" x1="13.5273" y1="22.7053" x2="24.4954" y2="13.846" gradientUnits="userSpaceOnUse">
    <stop offset="0" stop-color="#E58200" stop-opacity="0"/>
    <stop offset="0.4384" stop-color="#C4602C" stop-opacity="0.439216"/>
    <stop offset="0.7953" stop-color="#AE4948" stop-opacity="0.796078"/>
    <stop offset="1" stop-color="#A64153"/>
  </linearGradient>
  <linearGradient id="etc14_linear" x1="27.5025" y1="27.4498" x2="27.7632" y2="20.8907" gradientUnits="userSpaceOnUse">
    <stop offset="0" stop-color="#E58200" stop-opacity="0"/>
    <stop offset="0.4384" stop-color="#C4602C" stop-opacity="0.439216"/>
    <stop offset="0.7953" stop-color="#AE4948" stop-opacity="0.796078"/>
    <stop offset="1" stop-color="#A64153"/>
  </linearGradient>
  <linearGradient id="etc15_linear" x1="28.9942" y1="22.5705" x2="17.9432" y2="13.8146" gradientUnits="userSpaceOnUse">
    <stop offset="0" stop-color="#E58200" stop-opacity="0"/>
    <stop offset="0.4384" stop-color="#C4602C" stop-opacity="0.439216"/>
    <stop offset="0.7953" stop-color="#AE4948" stop-opacity="0.796078"/>
    <stop offset="1" stop-color="#A64153"/>
  </linearGradient>
  <linearGradient id="etc16_linear" x1="30.0763" y1="27.058" x2="21.6332" y2="18.6148" gradientUnits="userSpaceOnUse">
    <stop offset="0" stop-color="#E58200" stop-opacity="0"/>
    <stop offset="0.4384" stop-color="#C4602C" stop-opacity="0.439216"/>
    <stop offset="0.7953" stop-color="#AE4948" stop-opacity="0.796078"/>
    <stop offset="1" stop-color="#A64153"/>
  </linearGradient>
  <linearGradient id="etc17_linear" x1="18.1349" y1="18.0865" x2="25.8976" y2="25.8492" gradientUnits="userSpaceOnUse">
    <stop offset="0" stop-color="#FF6E3A"/>
    <stop offset="0.1596" stop-color="#FF6440"/>
    <stop offset="0.4266" stop-color="#FF4B52"/>
    <stop offset="0.7662" stop-color="#FF216E"/>
    <stop offset="1" stop-color="#FF0084"/>
  </linearGradient>
  <linearGradient id="etc18_linear" x1="31.5092" y1="33.4845" x2="31.5092" y2="41.8249" gradientUnits="userSpaceOnUse">
    <stop offset="0" stop-color="#45425A"/>
    <stop offset="1" stop-color="#2D3251"/>
  </linearGradient>
  <linearGradient id="etc19_linear" x1="38.4214" y1="33.4845" x2="38.4214" y2="41.8249" gradientUnits="userSpaceOnUse">
    <stop offset="0" stop-color="#45425A"/>
    <stop offset="1" stop-color="#2D3251"/>
  </linearGradient>
  <linearGradient id="etc20_linear" x1="45.4511" y1="33.4851" x2="45.4511" y2="41.8255" gradientUnits="userSpaceOnUse">
    <stop offset="0" stop-color="#45425A"/>
    <stop offset="1" stop-color="#2D3251"/>
  </linearGradient>
  <linearGradient id="etc21_linear" x1="52.49" y1="33.4845" x2="52.49" y2="41.8249" gradientUnits="userSpaceOnUse">
    <stop offset="0" stop-color="#45425A"/>
    <stop offset="1" stop-color="#2D3251"/>
  </linearGradient>
  <linearGradient id="etc22_linear" x1="59.2724" y1="33.4845" x2="59.2724" y2="41.8249" gradientUnits="userSpaceOnUse">
    <stop offset="0" stop-color="#45425A"/>
    <stop offset="1" stop-color="#2D3251"/>
  </linearGradient>
  <linearGradient id="etc23_linear" x1="66.3946" y1="33.4845" x2="66.3946" y2="41.8249" gradientUnits="userSpaceOnUse">
    <stop offset="0" stop-color="#45425A"/>
    <stop offset="1" stop-color="#2D3251"/>
  </linearGradient>
  <linearGradient id="etc24_linear" x1="72.9201" y1="33.4845" x2="72.9201" y2="41.8249" gradientUnits="userSpaceOnUse">
    <stop offset="0" stop-color="#45425A"/>
    <stop offset="1" stop-color="#2D3251"/>
  </linearGradient>
</defs>
</svg>