<?xml version="1.0" encoding="UTF-8"?>
<!DOCTYPE svg PUBLIC "-//W3C//DTD SVG 1.1//EN" "http://www.w3.org/Graphics/SVG/1.1/DTD/svg11.dtd">
<!-- Creator: CorelDRAW 2017 -->
<svg xmlns="http://www.w3.org/2000/svg" xml:space="preserve" width="40px" height="40px" version="1.1" style="shape-rendering:geometricPrecision; text-rendering:geometricPrecision; image-rendering:optimizeQuality; fill-rule:evenodd; clip-rule:evenodd"
viewBox="0 0 40.01 40.01"
 xmlns:xlink="http://www.w3.org/1999/xlink">
 <defs>
  <style type="text/css">
   <![CDATA[
    .fil0 {fill:black}
   ]]>
  </style>
 </defs>
 <g id="Слой_x0020_1">
  <metadata id="CorelCorpID_0Corel-Layer"/>
  <path class="fil0" d="M35.66 40l-19.14 0c-2.4,0 -4.34,-1.95 -4.34,-4.34l0 -10.44c0,-0.48 0.39,-0.87 0.86,-0.87 0.48,0 0.87,0.39 0.87,0.87l0 10.44c0,1.44 1.17,2.61 2.61,2.61l19.14 0c1.44,0 2.61,-1.17 2.61,-2.61l0 -31.31c0,-1.44 -1.17,-2.61 -2.61,-2.61l-19.14 0c-1.44,0 -2.61,1.17 -2.61,2.61l0 10.43c0,0.48 -0.39,0.87 -0.87,0.87 -0.47,0 -0.86,-0.39 -0.86,-0.87l0 -10.43c0,-2.4 1.94,-4.35 4.34,-4.35l19.14 0c2.4,0 4.35,1.95 4.35,4.35l0 31.31c0,2.39 -1.95,4.35 -4.35,4.35l0 -0.01zm0 0z"/>
  <path class="fil0" d="M28.7 20.87l-27.83 0c-0.48,0 -0.87,-0.39 -0.87,-0.87 0,-0.48 0.39,-0.87 0.87,-0.87l27.83 0c0.48,0 0.87,0.39 0.87,0.87 0,0.48 -0.39,0.87 -0.87,0.87l0 0zm0 0z"/>
  <path class="fil0" d="M23.48 26.09c-0.22,0 -0.44,-0.09 -0.61,-0.25 -0.34,-0.34 -0.34,-0.89 0,-1.23l4.6 -4.61 -4.6 -4.6c-0.34,-0.34 -0.34,-0.89 0,-1.23 0.34,-0.34 0.89,-0.34 1.23,0l5.22 5.22c0.33,0.34 0.33,0.89 0,1.23l-5.22 5.22c-0.17,0.16 -0.4,0.25 -0.62,0.25l0 0zm0 0z"/>
 </g>
</svg>
