<svg id="Слой_1" data-name="Слой 1" xmlns="http://www.w3.org/2000/svg" xmlns:xlink="http://www.w3.org/1999/xlink" viewBox="0 0 180 180"><defs><style>.cls-1{fill:#fff;}.cls-2{fill:none;stroke-linecap:round;stroke-linejoin:round;stroke-width:8px;stroke:url(#Безымянный_градиент);}.cls-3{fill:url(#Безымянный_градиент_2);}</style><linearGradient id="Безымянный_градиент" x1="165.29" y1="-178.77" x2="165.82" y2="-157.19" gradientTransform="translate(-2973.49 3587.57) scale(19.51)" gradientUnits="userSpaceOnUse"><stop offset="0.16" stop-color="#fd749b"/><stop offset="0.66" stop-color="#281ac8"/></linearGradient><linearGradient id="Безымянный_градиент_2" x1="165.63" y1="-174.38" x2="165.87" y2="-164.57" gradientTransform="translate(-2973.49 3587.57) scale(19.51)" gradientUnits="userSpaceOnUse"><stop offset="0.22" stop-color="#fd749b"/><stop offset="0.6" stop-color="#3921c4"/></linearGradient></defs><title>apple-touch-icon</title><rect class="cls-1" width="180" height="180" rx="36" ry="36"/><path class="cls-2" d="M277.54,310h35c7.54,0,13.46-6.82,13.46-14.78s-5.92-14.78-13.46-14.78h-8.07C315.23,256,309.85,202,261.39,202c-32.31,0-48.46,19.89-48.46,60.25h-5.39c-11.85,0-21.54,10.8-21.54,23.87S195.69,310,207.54,310h70Z" transform="translate(-166 -166)"/><path class="cls-3" d="M260.92,254.63l-8.41,2.8-4.09-12.24,8.29-2.77a6.63,6.63,0,0,1,5,.32h0a6.35,6.35,0,0,1,3,8.47l-0.08.16h0A6.61,6.61,0,0,1,260.92,254.63Zm-19.33-7.14,1.23-.41,10.69,32-1.23.41a2.93,2.93,0,0,0,1.76,5.59l0.1,0,7.25-2.42,0.39,1.17a2.95,2.95,0,1,0,5.59-1.87h0L267,280.77l0.49-.16,0.39,1.17a2.95,2.95,0,0,0,5.59-1.87l-0.4-1.2a13.31,13.31,0,0,0-2.77-25.59,12.15,12.15,0,0,0,.31-8.53,12.33,12.33,0,0,0-11.71-8.37l-0.6-1.8h0a3,3,0,0,0-5.6,1.87h0l0.39,1.18-0.49.16-0.39-1.18h0a2.95,2.95,0,0,0-5.59,1.87L247,239.5l-1.07.36h0l-1.79.6-4.39,1.47a2.93,2.93,0,1,0,1.85,5.56h0Zm33.27,22.14h0a7.69,7.69,0,0,1-4.45,3.81l-11.3,3.77L254.35,263l8.29-2.77,0.17-.06,2.86-1a7.69,7.69,0,0,1,5.85.37h0a7.38,7.38,0,0,1,3.43,9.85Z" transform="translate(-166 -166)"/></svg>