<svg id="Слой_1" data-name="Слой 1" xmlns="http://www.w3.org/2000/svg" xmlns:xlink="http://www.w3.org/1999/xlink" viewBox="0 0 512 512"><defs><style>.cls-1,.cls-2{fill:none;}.cls-2{stroke-linecap:round;stroke-linejoin:round;stroke-width:22px;stroke:url(#Безымянный_градиент_83);}.cls-3{fill:url(#Безымянный_градиент_125);}</style><linearGradient id="Безымянный_градиент_83" x1="7.28" y1="532.74" x2="8.9" y2="466.71" gradientTransform="matrix(19.51, 0, 0, -19.51, 99.17, 10172.03)" gradientUnits="userSpaceOnUse"><stop offset="0.16" stop-color="#fd749b"/><stop offset="0.66" stop-color="#281ac8"/></linearGradient><linearGradient id="Безымянный_градиент_125" x1="8.38" y1="520.91" x2="9.23" y2="486.58" gradientTransform="matrix(19.51, 0, 0, -19.51, 99.17, 10172.03)" gradientUnits="userSpaceOnUse"><stop offset="0.22" stop-color="#fd749b"/><stop offset="0.6" stop-color="#3921c4"/></linearGradient></defs><title>cb</title><rect class="cls-1" width="512" height="512" rx="102.4" ry="102.4"/><path class="cls-2" d="M331.38,445h122.5c26.38,0,47.12-23.87,47.12-51.73s-20.73-51.73-47.12-51.73H425.62C463.31,256,444.46,67,274.85,67c-113.08,0-169.62,69.63-169.62,210.88H86.38c-41.46,0-75.38,37.8-75.38,83.56S44.92,445,86.38,445h245Z"/><path class="cls-3" d="M273.21,251.21L243.76,261l-14.31-42.84,29-9.68a23.19,23.19,0,0,1,17.65,1.12h0a22.21,22.21,0,0,1,10.09,30.21h0A23.15,23.15,0,0,1,273.21,251.21Zm-67.64-25,4.31-1.44L247.31,336.8,243,338.24a10.26,10.26,0,1,0,6.5,19.46l25.37-8.48,1.37,4.11a10.32,10.32,0,0,0,19.58-6.54l-1.37-4.11,1.71-.57,1.37,4.11a10.32,10.32,0,0,0,19.58-6.54l-1.4-4.2c23-9.27,35.33-34.7,27.43-58.36A46.63,46.63,0,0,0,306,245.93a42.54,42.54,0,0,0,1.07-29.85,43.17,43.17,0,0,0-41-29.31l-2.11-6.31h0A10.32,10.32,0,0,0,244.36,187l1.38,4.13-1.71.57-1.38-4.13h0a10.32,10.32,0,0,0-19.58,6.54l1.38,4.13-3.74,1.25h0l-6.26,2.09-15.37,5.13A10.26,10.26,0,1,0,205.57,226.18ZM322,303.7h0a26.9,26.9,0,0,1-15.59,13.35l-39.55,13.21-16.62-49.76,29-9.68,0.59-.21,10-3.33a26.92,26.92,0,0,1,20.48,1.31h0A25.82,25.82,0,0,1,322,303.7Z"/></svg>