<svg width="67" height="66" viewBox="0 0 67 66" fill="none" focusable='false' xmlns="http://www.w3.org/2000/svg">
<path fill-rule="evenodd" clip-rule="evenodd" d="M33.465 65.88C51.5696 65.88 66.2463 51.2032 66.2463 33.0986C66.2463 14.9939 51.5696 0.317215 33.465 0.317215C15.3603 0.317215 0.683594 14.9939 0.683594 33.0986C0.683594 35.311 0.902772 37.4723 1.3206 39.5618L20.4264 40.1184C21.6702 37.7505 23.8035 35.8521 26.5349 34.9495L26.7385 25.7227C26.7187 25.668 26.698 25.6138 26.6773 25.5596C26.6361 25.4516 26.5949 25.3437 26.5607 25.2318C24.6235 18.899 28.2083 12.1883 34.5664 10.2433C40.9238 8.29863 47.6502 11.8552 49.5874 18.188C51.1221 23.2051 49.185 28.4487 45.159 31.3833L39.4382 40.3431C39.6828 40.8437 39.9032 41.3611 40.071 41.9096C41.7878 47.522 38.6122 53.47 32.9798 55.1929C28.1207 56.6793 23.0275 54.5343 20.6135 50.318L5.29406 49.8721C11.0146 59.459 21.4899 65.88 33.465 65.88ZM40.0019 28.1605C43.53 27.0812 45.5187 23.3554 44.4435 19.8404C43.3682 16.3253 39.6357 14.3504 36.1076 15.4296C32.5772 16.5096 30.5891 20.2344 31.6643 23.7495C32.7396 27.2645 36.47 29.2409 40.0019 28.1605ZM40.7694 30.6556C35.8312 32.1662 30.6085 29.403 29.1038 24.4841C27.5984 19.5628 30.3815 14.3507 35.3197 12.8401C40.257 11.3298 45.4829 14.092 46.9883 19.0132C48.493 23.9322 45.7075 29.145 40.7694 30.6556ZM26.4781 39.6045C30.2372 38.4546 34.2141 40.5594 35.3595 44.3038C36.5049 48.0483 34.3861 52.0178 30.6268 53.1669C27.5659 54.1032 24.3613 52.883 22.6582 50.3762L27.1819 50.5084C29.9866 51.0573 32.715 49.237 33.2715 46.435C33.8286 43.6379 32.0074 40.9232 29.2005 40.3724L25.0029 40.2504C25.4611 39.9877 25.9503 39.7659 26.4781 39.6045Z" fill="white"/>
</svg>
