<svg width="85" height="50" viewBox="0 0 85 50" fill="none" focusable='false' xmlns="http://www.w3.org/2000/svg">
<path d="M82.2107 15.4508C83.1851 15.4508 83.9751 14.6614 83.9751 13.687L83.9757 5.45976C83.9757 3.78918 82.6216 2.43445 80.9504 2.43445L3.45819 2.42871C1.78696 2.42871 0.432878 3.78343 0.43224 5.45402V13.6806C0.43224 14.655 1.22159 15.445 2.19599 15.4456C3.17104 15.4456 3.96039 16.2356 3.96039 17.21L3.95911 33.4233C3.95911 34.3977 3.16912 35.1877 2.19472 35.1877C1.22031 35.1877 0.430326 35.9777 0.430326 36.9521L0.429688 45.1793C0.429688 46.8499 1.78441 48.204 3.455 48.2046L80.9479 48.2097C82.6185 48.2097 83.9732 46.8557 83.9732 45.1851L83.9738 36.9578C83.9738 35.9834 83.1838 35.1934 82.2094 35.1934C81.235 35.1934 80.445 34.4035 80.445 33.4284L80.4463 17.2151C80.4463 16.2407 81.2363 15.4508 82.2107 15.4508Z" fill="url(#etc0_linear)"/>
<path d="M0.430326 37.5273L0.429688 45.1796C0.429688 46.8502 1.78377 48.2043 3.45436 48.2049L80.9472 48.2101C82.6185 48.2101 83.9725 46.856 83.9725 45.1854L83.9732 37.528H0.430326V37.5273Z" fill="url(#etc1_linear)"/>
<path d="M3.8291 25.8325L9.38391 31.3873V25.8325H3.8291Z" fill="url(#etc2_linear)"/>
<path d="M26.3994 2.59863L32.4137 8.61288H26.3994V2.59863Z" fill="url(#etc3_linear)"/>
<path d="M75.4686 42.6138H9.68898C8.59334 42.6138 7.70508 41.7262 7.70508 40.6299V10.0112C7.70508 8.91487 8.59334 8.02661 9.68898 8.02661H75.4686C76.5642 8.02661 77.4525 8.91487 77.4525 10.0112V40.6299C77.4525 41.7255 76.5642 42.6138 75.4686 42.6138Z" fill="url(#etc4_linear)"/>
<path d="M35.1361 13.3497C34.0028 12.0779 32.1191 11.5865 30.439 12.337C28.7958 13.0721 27.2165 14.0324 25.7718 14.8352C24.8982 15.3208 24.1822 15.8109 23.5435 16.299C22.8524 15.9793 22.0828 15.8 21.2718 15.8C20.4199 15.8 19.6152 15.9966 18.898 16.3463C18.2669 15.876 17.5592 15.405 16.7029 14.9392C15.2505 14.1499 13.6629 13.2042 12.0127 12.485C9.70848 11.4806 7.04243 12.7958 6.44451 15.2372C6.0157 16.9888 7.96323 18.7226 7.94472 20.4647C7.94472 20.4647 5.99464 24.4031 6.49684 26.3743C6.70423 27.1891 7.14325 27.8745 7.72075 28.3888L24.0878 44.7558C24.1924 44.8745 24.3048 44.9856 24.4215 45.0902C24.7482 45.4584 25.1375 45.7615 25.5669 45.988C25.632 46.0231 25.6984 46.0557 25.7654 46.0863C25.768 46.0876 25.7705 46.0889 25.7731 46.0895C25.8375 46.1195 25.9026 46.1476 25.969 46.1737C25.9741 46.1757 25.9792 46.1776 25.9843 46.1795C26.0474 46.2044 26.1113 46.228 26.1757 46.2497C26.184 46.2522 26.1917 46.2548 26.2 46.2573C26.2612 46.2777 26.3238 46.2963 26.3863 46.3141C26.3971 46.3167 26.408 46.3199 26.4188 46.3224C26.4788 46.339 26.5394 46.3537 26.6001 46.3671C26.6135 46.3703 26.6269 46.3728 26.6403 46.376C26.699 46.3881 26.7577 46.399 26.8164 46.4086C26.8323 46.4111 26.8483 46.4137 26.8642 46.4162C26.921 46.4252 26.9778 46.4322 27.0353 46.4386C27.0531 46.4405 27.0716 46.4424 27.0901 46.4443C27.145 46.45 27.1999 46.4532 27.2554 46.4564C27.2758 46.4577 27.2962 46.459 27.3173 46.4596C27.3703 46.4622 27.4232 46.4628 27.4768 46.4628C27.4992 46.4628 27.5221 46.4628 27.5451 46.4622C27.5962 46.4615 27.6478 46.459 27.6989 46.4564C27.7238 46.4545 27.7487 46.4539 27.7736 46.452C27.8233 46.4481 27.8725 46.443 27.9222 46.4373C27.949 46.4341 27.9752 46.4315 28.0014 46.4283C28.0499 46.422 28.0984 46.4137 28.1462 46.4054C28.1743 46.4009 28.2017 46.3971 28.2292 46.3913C28.2764 46.3824 28.3236 46.3716 28.3715 46.3607C28.3995 46.3543 28.4276 46.3486 28.4557 46.3416C28.5036 46.3294 28.5508 46.3154 28.598 46.3014C28.6254 46.2937 28.6535 46.2867 28.681 46.2777C28.732 46.2618 28.7824 46.2433 28.8322 46.2254C28.8564 46.2171 28.8807 46.2095 28.9043 46.2005C28.9783 46.1725 29.0523 46.1418 29.1257 46.1093C30.1525 45.6505 31.1543 45.103 32.1147 44.5606C32.3061 44.4521 32.4969 44.3443 32.6851 44.2371C33.0623 44.0226 33.4317 43.8121 33.7929 43.6111C34.3008 43.3284 34.7565 43.0444 35.1744 42.7605C35.1948 42.7464 35.214 42.7324 35.2344 42.7183C36.1074 43.3207 37.166 43.6742 38.3069 43.6742C39.4836 43.6742 40.5723 43.2977 41.4605 42.6609C41.8842 42.9442 42.3462 43.2269 42.8618 43.507C43.0437 43.606 43.2275 43.7074 43.4138 43.8108C44.5273 44.4272 45.7116 45.1049 46.9362 45.6817C47.1404 45.7781 47.3459 45.8719 47.552 45.9612C47.626 45.9938 47.7 46.0231 47.774 46.0506C47.7976 46.0595 47.8213 46.0665 47.8449 46.0748C47.8468 46.0755 47.8487 46.0761 47.8506 46.0767C47.8742 46.085 47.8972 46.0927 47.9208 46.1004C47.947 46.1087 47.9725 46.1182 47.998 46.1259C48.0255 46.1342 48.0529 46.1412 48.0797 46.1488C48.1263 46.1616 48.1722 46.175 48.2188 46.1865C48.2233 46.1878 48.2265 46.1884 48.2309 46.1897C48.2565 46.1954 48.282 46.1999 48.3075 46.2056C48.3554 46.2165 48.4032 46.2267 48.4511 46.2356C48.4772 46.2407 48.5028 46.2439 48.5289 46.2484C48.5506 46.2516 48.5717 46.2554 48.5934 46.2586C48.6221 46.2624 48.6508 46.2669 48.6789 46.2701C48.705 46.2733 48.7312 46.2758 48.7574 46.2784C48.8033 46.2829 48.8493 46.288 48.8946 46.2911C48.9022 46.2918 48.9092 46.2924 48.9169 46.2924C48.9386 46.2937 48.9597 46.2943 48.9814 46.295C49.033 46.2975 49.0841 46.2994 49.1358 46.3001C49.1587 46.3001 49.1811 46.3001 49.2041 46.2994H49.2111C49.2289 46.2994 49.2462 46.2994 49.264 46.2988C49.2972 46.2982 49.3304 46.2969 49.3636 46.2956C49.384 46.2943 49.4051 46.2931 49.4255 46.2918C49.4727 46.2886 49.5193 46.2854 49.5665 46.2809C49.5767 46.2797 49.5876 46.2784 49.5978 46.2771C49.6137 46.2758 49.6297 46.2739 49.645 46.2714C49.7024 46.265 49.7592 46.2573 49.816 46.2478C49.832 46.2452 49.8473 46.2427 49.8632 46.2401C49.8722 46.2382 49.8817 46.2369 49.8907 46.235C49.9002 46.2337 49.9104 46.2318 49.92 46.2299C49.9602 46.2229 49.9998 46.2139 50.04 46.205C50.0527 46.2024 50.0662 46.1993 50.0789 46.1961C50.1268 46.1852 50.1746 46.1737 50.2225 46.161C50.2333 46.1578 50.2448 46.1546 50.2557 46.1514C50.2576 46.1508 50.2595 46.1501 50.2608 46.1501C50.2716 46.1469 50.2818 46.1437 50.292 46.1412C50.3552 46.1233 50.4178 46.1035 50.4796 46.0825C50.4873 46.0799 50.495 46.0774 50.502 46.0748C50.5664 46.0525 50.6302 46.0282 50.6941 46.0027C50.6992 46.0008 50.7043 45.9989 50.7094 45.9963C50.7566 45.9772 50.8032 45.9574 50.8491 45.9364C50.8568 45.9325 50.8644 45.9293 50.8721 45.9261C50.8829 45.921 50.8932 45.9159 50.904 45.9108C50.9066 45.9096 50.9091 45.9089 50.9117 45.9076C51.0922 45.8221 51.2658 45.7239 51.4324 45.6128C51.4362 45.6103 51.44 45.6077 51.4438 45.6052C51.6251 45.4839 51.7967 45.3474 51.9569 45.1981C51.9582 45.1968 51.9594 45.1955 51.9607 45.1942C52.5101 44.6793 52.9249 44.0048 53.1195 43.2097C53.6032 41.2347 51.6168 37.3141 51.6168 37.3141C51.5823 35.5721 53.5133 33.8204 53.0678 32.0733C52.8592 31.2546 52.4176 30.5667 51.8376 30.0511L35.1361 13.3497Z" fill="url(#etc5_linear)"/>
<path d="M0.379883 24.2012V17.2119C0.379883 16.3102 1.11053 15.5796 2.01282 15.5796H82.3862C83.2878 15.5796 84.0191 16.3102 84.0191 17.2119V24.2012C84.0191 25.1028 83.2885 25.8341 82.3862 25.8341H2.01282C1.11053 25.8341 0.379883 25.1028 0.379883 24.2012H0.379883Z" fill="url(#etc6_linear)"/>
<path d="M29.8672 25.8341H46.2757L36.0205 15.5796H29.8672V25.8341Z" fill="url(#etc7_linear)"/>
<path d="M24.771 49.6755H17.7817C16.8801 49.6755 16.1494 48.9442 16.1494 48.0425V2.59778C16.1494 1.69613 16.8801 0.964844 17.7817 0.964844H24.771C25.6727 0.964844 26.4039 1.69549 26.4039 2.59778V48.0425C26.4039 48.9442 25.6727 49.6755 24.771 49.6755Z" fill="url(#etc8_linear)"/>
<path d="M16.1494 26.871L26.4046 37.1262V22.415H16.1494V26.871Z" fill="url(#etc9_linear)"/>
<path d="M19.9502 17.1766C19.0518 16.4338 18.0646 15.6789 16.7029 14.9387C15.2505 14.1487 13.6622 13.203 12.0121 12.4839C9.70784 11.4801 7.04243 12.7953 6.44451 15.2367C6.0157 16.9883 7.96323 18.7221 7.94472 20.4642C7.94472 20.4642 5.99464 24.4026 6.49684 26.3731C7.11709 28.8088 9.79526 30.0991 12.0899 29.0736C13.7331 28.3391 15.3124 27.3788 16.7571 26.5754C18.1118 25.8218 19.092 25.058 19.9841 24.3069C22.1996 22.441 22.1837 19.0214 19.9502 17.1766Z" fill="url(#etc10_linear)"/>
<path d="M34.5838 20.2779C34.5494 18.5359 36.4803 16.7836 36.0349 15.0364C35.4146 12.6007 32.7365 11.3105 30.4418 12.3359C28.7987 13.0704 27.2193 14.0308 25.7746 14.8341C24.4199 15.5878 23.4397 16.3516 22.5483 17.102C20.3321 18.9685 20.3487 22.3882 22.5815 24.233C23.48 24.9751 24.4671 25.73 25.8295 26.4708C27.2818 27.2608 28.8695 28.2059 30.5197 28.925C32.8239 29.9294 35.4899 28.6143 36.0872 26.1728C36.5709 24.1979 34.5838 20.2779 34.5838 20.2779Z" fill="url(#etc11_linear)"/>
<path d="M19.9851 24.3084C20.6909 23.7137 21.1688 22.9613 21.4222 22.1528C17.3242 22.5395 10.9258 23.9587 8.53223 28.9532C9.5915 29.5135 10.8933 29.6099 12.091 29.0745C13.7342 28.34 15.3135 27.3796 16.7582 26.5769C18.1135 25.8233 19.0931 25.0588 19.9851 24.3084Z" fill="url(#etc12_linear)"/>
<path d="M9.64261 20.4669C9.65027 22.1069 9.86595 26.6177 14.3896 27.9112C15.2095 27.4594 16.0027 26.9962 16.7589 26.5756C18.1142 25.8227 19.0938 25.0582 19.9858 24.3078C21.2276 23.2619 21.7681 21.7279 21.6105 20.2564C21.6105 20.2564 19.2361 18.9884 18.1819 18.4843C12.4867 15.7583 9.63176 18.1595 9.64261 20.4669Z" fill="url(#etc13_linear)"/>
<path d="M22.5805 24.2344C21.869 23.6461 21.384 22.8989 21.123 22.0923C25.2242 22.4407 31.636 23.7999 34.0762 28.7721C33.022 29.3419 31.7215 29.4504 30.5187 28.9265C28.8685 28.2074 27.2802 27.2617 25.8285 26.4723C24.4661 25.7315 23.479 24.9766 22.5805 24.2344Z" fill="url(#etc14_linear)"/>
<path d="M32.8878 20.297C32.8954 21.9369 32.7225 26.4497 28.211 27.7853C27.3872 27.3411 26.5896 26.8855 25.8289 26.472C24.4672 25.7318 23.48 24.9769 22.5816 24.2342C21.3296 23.2004 20.7751 21.6715 20.9186 20.1981C20.9186 20.1981 23.2809 18.9084 24.3306 18.3941C30.0003 15.6151 32.8769 17.9902 32.8878 20.297Z" fill="url(#etc15_linear)"/>
<path d="M35.3767 27.6619L25.2345 17.5203C24.7591 17.0111 24.1854 16.5951 23.5454 16.2983C23.1938 16.5676 22.8651 16.8363 22.548 17.103C20.3324 18.9689 20.3484 22.3885 22.5818 24.234C23.4803 24.9761 24.4674 25.731 25.8298 26.4718C27.2815 27.2612 28.8698 28.2069 30.52 28.926C32.2946 29.6994 34.2829 29.0958 35.3767 27.6619Z" fill="url(#etc16_linear)"/>
<path d="M26.6883 21.2203C26.6883 24.2131 24.2616 26.6398 21.2688 26.6398C18.2754 26.6398 15.8486 24.2131 15.8486 21.2203C15.8486 18.2269 18.2754 15.8008 21.2688 15.8008C24.2616 15.8008 26.6883 18.2269 26.6883 21.2203Z" fill="url(#etc17_linear)"/>
<path d="M28.2373 31.3464C28.2373 31.1997 28.3235 31.0733 28.4945 30.9668C28.6661 30.8608 28.8499 30.8079 29.0458 30.8079C29.2908 30.8079 29.4414 30.8978 29.4989 31.0771L31.5191 38.0562L33.5273 31.0771C33.5834 30.8978 33.7296 30.8079 33.965 30.8079C34.1597 30.8079 34.3441 30.8608 34.5189 30.9668C34.6931 31.072 34.7806 31.1984 34.7806 31.3445C34.7806 31.3688 34.7723 31.4058 34.7563 31.4543L32.3334 39.3893C32.2925 39.5284 32.1949 39.6375 32.0411 39.7153C31.8873 39.7932 31.7131 39.8321 31.5191 39.8321C31.0699 39.8321 30.7968 39.6847 30.6985 39.3912L28.2494 31.4568C28.2418 31.4319 28.2373 31.3956 28.2373 31.3464Z" fill="url(#etc18_linear)"/>
<path d="M35.6729 37.1016V33.5384C35.6729 32.5997 35.9217 31.9099 36.4194 31.469C36.9172 31.028 37.5827 30.8079 38.4155 30.8079C39.2482 30.8079 39.9151 31.028 40.4172 31.469C40.9194 31.9099 41.1702 32.5997 41.1702 33.5384V37.1016C41.1702 38.0403 40.9194 38.7301 40.4172 39.1704C39.9151 39.6113 39.2482 39.8321 38.4155 39.8321C37.5827 39.8321 36.9172 39.6113 36.4194 39.1704C35.9211 38.7301 35.6729 38.0403 35.6729 37.1016ZM36.9701 37.1016C36.9701 38.1545 37.4519 38.6809 38.4155 38.6809C38.8807 38.6809 39.2399 38.5501 39.4926 38.2891C39.7453 38.0282 39.8723 37.6319 39.8723 37.1016V33.5384C39.8723 33.0074 39.7459 32.6118 39.4926 32.3508C39.2399 32.0892 38.8807 31.959 38.4155 31.959C37.4519 31.959 36.9701 32.4855 36.9701 33.5384V37.1016Z" fill="url(#etc19_linear)"/>
<path d="M42.6533 37.1022V31.2246C42.6533 31.0861 42.7165 30.9814 42.8428 30.9125C42.9692 30.843 43.1223 30.8085 43.3023 30.8085C43.4816 30.8085 43.6347 30.843 43.7611 30.9125C43.8881 30.9814 43.9512 31.0861 43.9512 31.2246V37.1022C43.9512 37.6325 44.0814 38.0288 44.3431 38.2898C44.604 38.5508 44.9716 38.6816 45.4451 38.6816C46.4488 38.6816 46.951 38.1551 46.951 37.1016V31.2246C46.951 31.0854 47.0142 30.9814 47.1412 30.9119C47.2675 30.843 47.4201 30.8079 47.6 30.8079C47.7793 30.8079 47.9325 30.843 48.0594 30.9119C48.1858 30.9814 48.249 31.0854 48.249 31.2246V37.1016C48.249 38.0409 47.9937 38.7301 47.4839 39.171C46.9734 39.612 46.2938 39.8321 45.4451 39.8321C44.604 39.8321 43.9289 39.612 43.4184 39.171C42.9079 38.7307 42.6533 38.0409 42.6533 37.1022Z" fill="url(#etc20_linear)"/>
<path d="M49.7412 37.1016V33.5384C49.7412 32.5997 49.992 31.9099 50.4942 31.469C50.9964 31.028 51.6511 30.8079 52.4596 30.8079C53.2923 30.8079 53.9636 31.014 54.4735 31.4256C54.984 31.8384 55.2386 32.3706 55.2386 33.0234C55.2386 33.285 55.1901 33.4624 55.0918 33.5562C54.9942 33.65 54.8264 33.6973 54.5896 33.6973C54.1653 33.6973 53.949 33.5543 53.9407 33.2684C53.8922 32.3955 53.4142 31.9584 52.5081 31.9584C51.5286 31.9584 51.0391 32.4848 51.0391 33.5384V37.1016C51.0391 38.1545 51.5369 38.6809 52.533 38.6809C52.8265 38.6809 53.0715 38.6382 53.2674 38.5527C53.4633 38.4665 53.6044 38.3421 53.6899 38.1787C53.7754 38.016 53.8347 37.8731 53.8673 37.7506C53.8998 37.6281 53.9247 37.4768 53.9407 37.2975C53.9655 37.0116 54.1774 36.8687 54.5775 36.8687C54.8142 36.8687 54.984 36.9159 55.0861 37.0097C55.1875 37.1035 55.2386 37.2809 55.2386 37.5425C55.2386 38.2202 54.9814 38.7709 54.4677 39.1953C53.9534 39.6196 53.2796 39.8321 52.4475 39.8321C51.639 39.8321 50.9862 39.6113 50.4884 39.1704C49.9901 38.7301 49.7412 38.0403 49.7412 37.1016Z" fill="url(#etc21_linear)"/>
<path d="M56.4502 39.3299V31.2239C56.4502 31.0854 56.5134 30.9814 56.6397 30.9119C56.7661 30.843 56.9192 30.8079 57.0992 30.8079C57.2785 30.8079 57.4316 30.8423 57.558 30.9119C57.6843 30.9814 57.7481 31.0854 57.7481 31.2239V34.6034H60.797V31.2239C60.797 31.0854 60.8602 30.9814 60.9866 30.9119C61.1129 30.843 61.2661 30.8079 61.446 30.8079C61.6253 30.8079 61.7785 30.8423 61.9048 30.9119C62.0312 30.9814 62.0943 31.0854 62.0943 31.2239V39.3299C62.0943 39.4607 62.0312 39.5647 61.9048 39.6419C61.7785 39.7198 61.6253 39.7587 61.446 39.7587C61.2744 39.7587 61.1231 39.7198 60.9929 39.6419C60.8621 39.5647 60.797 39.4607 60.797 39.3299V35.632H57.7481V39.3299C57.7481 39.4607 57.6843 39.5647 57.558 39.6419C57.4316 39.7198 57.2785 39.7587 57.0992 39.7587C56.9275 39.7587 56.7763 39.7198 56.6461 39.6419C56.5153 39.5647 56.4502 39.4607 56.4502 39.3299Z" fill="url(#etc22_linear)"/>
<path d="M63.7129 39.3299V31.236C63.7129 31.1059 63.7703 31.0018 63.8845 30.924C63.9988 30.8461 64.1334 30.8079 64.2885 30.8079H68.6474C68.7866 30.8079 68.8925 30.8647 68.9659 30.9789C69.0392 31.0931 69.0763 31.2239 69.0763 31.3707C69.0763 31.534 69.0373 31.6731 68.9601 31.7874C68.8823 31.9016 68.7783 31.9584 68.6474 31.9584H65.0108V34.7629H66.8965C67.0273 34.7629 67.1313 34.814 67.2091 34.9154C67.2863 35.0182 67.3253 35.1419 67.3253 35.2894C67.3253 35.4195 67.2883 35.5363 67.2149 35.6384C67.1415 35.7405 67.0356 35.7909 66.8965 35.7909H65.0108V38.6076H68.6474C68.7783 38.6076 68.8823 38.6644 68.9601 38.7786C69.0373 38.8934 69.0763 39.0319 69.0763 39.1953C69.0763 39.342 69.0392 39.4728 68.9659 39.5871C68.8925 39.7013 68.7866 39.7581 68.6474 39.7581H64.2885C64.1334 39.7581 63.9988 39.7198 63.8845 39.6419C63.7703 39.5647 63.7129 39.4607 63.7129 39.3299Z" fill="url(#etc23_linear)"/>
<path d="M70.1162 39.3299V31.2239C70.1162 31.1097 70.1564 31.0121 70.2387 30.9304C70.3198 30.8487 70.4225 30.8079 70.5444 30.8079H72.871C74.7483 30.8079 75.687 31.6406 75.687 33.3054C75.687 33.9965 75.5319 34.5389 75.2218 34.9333C74.9117 35.3276 74.4911 35.5899 73.9609 35.7201L75.6748 38.9477C75.7074 39.0051 75.724 39.0664 75.724 39.1321C75.724 39.2955 75.6404 39.4467 75.4732 39.5864C75.3054 39.7255 75.128 39.7951 74.9404 39.7951C74.7279 39.7951 74.5569 39.6681 74.426 39.4148L72.638 35.9013H71.4014V39.3286C71.4014 39.4594 71.3382 39.5641 71.2119 39.6419C71.0855 39.7198 70.9324 39.7587 70.7524 39.7587C70.5814 39.7587 70.4321 39.7198 70.3057 39.6419C70.1794 39.5647 70.1162 39.4607 70.1162 39.3299ZM71.402 34.8727H72.871C73.883 34.8727 74.3897 34.3877 74.3897 33.4158C74.3897 32.4446 73.883 31.9584 72.871 31.9584H71.402V34.8727Z" fill="url(#etc24_linear)"/>
<defs>
<linearGradient id="etc0_linear" x1="20.5359" y1="3.6527" x2="77.0809" y2="60.1977" gradientUnits="userSpaceOnUse">
<stop offset="0" stop-color="#FFD459"/>
<stop offset="0.2296" stop-color="#FFD355"/>
<stop offset="0.4362" stop-color="#FFCF4A"/>
<stop offset="0.634" stop-color="#FFC838"/>
<stop offset="0.825" stop-color="#FFBF1F"/>
<stop offset="1" stop-color="#FFB400"/>
</linearGradient>
<linearGradient id="etc1_linear" x1="42.2016" y1="42.249" x2="42.2016" y2="50.644" gradientUnits="userSpaceOnUse">
<stop offset="0" stop-color="#E58200" stop-opacity="0"/>
<stop offset="0.0396" stop-color="#E27F04" stop-opacity="0.039216"/>
<stop offset="0.4671" stop-color="#C15D2F" stop-opacity="0.466667"/>
<stop offset="0.8016" stop-color="#AD4949" stop-opacity="0.8"/>
<stop offset="1" stop-color="#A64153"/>
</linearGradient>
<linearGradient id="etc2_linear" x1="8.15984" y1="29.3831" x2="5.94917" y2="24.3301" gradientUnits="userSpaceOnUse">
<stop offset="0" stop-color="#E58200" stop-opacity="0"/>
<stop offset="0.0396" stop-color="#E27F04" stop-opacity="0.039216"/>
<stop offset="0.4671" stop-color="#C15D2F" stop-opacity="0.466667"/>
<stop offset="0.8016" stop-color="#AD4949" stop-opacity="0.8"/>
<stop offset="1" stop-color="#A64153"/>
</linearGradient>
<linearGradient id="etc3_linear" x1="30.5849" y1="8.56334" x2="17.7658" y2="-0.495526" gradientUnits="userSpaceOnUse">
<stop offset="0" stop-color="#E58200" stop-opacity="0"/>
<stop offset="0.0396" stop-color="#E27F04" stop-opacity="0.039216"/>
<stop offset="0.4671" stop-color="#C15D2F" stop-opacity="0.466667"/>
<stop offset="0.8016" stop-color="#AD4949" stop-opacity="0.8"/>
<stop offset="1" stop-color="#A64153"/>
</linearGradient>
<linearGradient id="etc4_linear" x1="25.0077" y1="7.74705" x2="70.8636" y2="53.6094" gradientUnits="userSpaceOnUse">
<stop offset="0" stop-color="#FFFCF8"/>
<stop offset="0.1875" stop-color="#FAF8F6"/>
<stop offset="0.4041" stop-color="#ECEEF2"/>
<stop offset="0.6353" stop-color="#D5DCEA"/>
<stop offset="0.875" stop-color="#B5C4DF"/>
<stop offset="1" stop-color="#A1B5D8"/>
</linearGradient>
<linearGradient id="etc5_linear" x1="33.2464" y1="37.1416" x2="18.889" y2="4.3246" gradientUnits="userSpaceOnUse">
<stop offset="0" stop-color="#A1B5D8" stop-opacity="0"/>
<stop offset="0.0343" stop-color="#9FB3D5" stop-opacity="0.035294"/>
<stop offset="0.4515" stop-color="#8898AF" stop-opacity="0.45098"/>
<stop offset="0.788" stop-color="#798898" stop-opacity="0.788235"/>
<stop offset="1" stop-color="#748290"/>
</linearGradient>
<linearGradient id="etc6_linear" x1="42.1995" y1="18.6554" x2="42.1995" y2="29.7653" gradientUnits="userSpaceOnUse">
<stop offset="0" stop-color="#FF6E3A"/>
<stop offset="0.1596" stop-color="#FF6440"/>
<stop offset="0.4266" stop-color="#FF4B52"/>
<stop offset="0.7662" stop-color="#FF216E"/>
<stop offset="1" stop-color="#FF0084"/>
</linearGradient>
<linearGradient id="etc7_linear" x1="39.7806" y1="27.5433" x2="27.759" y2="15.5217" gradientUnits="userSpaceOnUse">
<stop offset="0" stop-color="#E58200" stop-opacity="0"/>
<stop offset="0.4384" stop-color="#C4602C" stop-opacity="0.439216"/>
<stop offset="0.7953" stop-color="#AE4948" stop-opacity="0.796078"/>
<stop offset="1" stop-color="#A64153"/>
</linearGradient>
<linearGradient id="etc8_linear" x1="21.2765" y1="22.4936" x2="21.2765" y2="60.7731" gradientUnits="userSpaceOnUse">
<stop offset="0" stop-color="#FF6E3A"/>
<stop offset="0.1596" stop-color="#FF6440"/>
<stop offset="0.4266" stop-color="#FF4B52"/>
<stop offset="0.7662" stop-color="#FF216E"/>
<stop offset="1" stop-color="#FF0084"/>
</linearGradient>
<linearGradient id="etc9_linear" x1="27.8417" y1="31.2077" x2="16.5854" y2="19.9514" gradientUnits="userSpaceOnUse">
<stop offset="0" stop-color="#E58200" stop-opacity="0"/>
<stop offset="0.4384" stop-color="#C4602C" stop-opacity="0.439216"/>
<stop offset="0.7953" stop-color="#AE4948" stop-opacity="0.796078"/>
<stop offset="1" stop-color="#A64153"/>
</linearGradient>
<linearGradient id="etc10_linear" x1="16.0176" y1="30.6383" x2="11.447" y2="13.3594" gradientUnits="userSpaceOnUse">
<stop offset="0" stop-color="#FF0084"/>
<stop offset="0.2338" stop-color="#FF216E"/>
<stop offset="0.5734" stop-color="#FF4B52"/>
<stop offset="0.8404" stop-color="#FF6440"/>
<stop offset="1" stop-color="#FF6E3A"/>
</linearGradient>
<linearGradient id="etc11_linear" x1="27.9096" y1="31.458" x2="29.4703" y2="10.2774" gradientUnits="userSpaceOnUse">
<stop offset="0" stop-color="#FF0084"/>
<stop offset="0.2338" stop-color="#FF216E"/>
<stop offset="0.5734" stop-color="#FF4B52"/>
<stop offset="0.8404" stop-color="#FF6440"/>
<stop offset="1" stop-color="#FF6E3A"/>
</linearGradient>
<linearGradient id="etc12_linear" x1="15.0628" y1="27.5709" x2="14.7406" y2="21.0157" gradientUnits="userSpaceOnUse">
<stop offset="0" stop-color="#E58200" stop-opacity="0"/>
<stop offset="0.4384" stop-color="#C4602C" stop-opacity="0.439216"/>
<stop offset="0.7953" stop-color="#AE4948" stop-opacity="0.796078"/>
<stop offset="1" stop-color="#A64153"/>
</linearGradient>
<linearGradient id="etc13_linear" x1="13.5273" y1="22.7053" x2="24.4954" y2="13.846" gradientUnits="userSpaceOnUse">
<stop offset="0" stop-color="#E58200" stop-opacity="0"/>
<stop offset="0.4384" stop-color="#C4602C" stop-opacity="0.439216"/>
<stop offset="0.7953" stop-color="#AE4948" stop-opacity="0.796078"/>
<stop offset="1" stop-color="#A64153"/>
</linearGradient>
<linearGradient id="etc14_linear" x1="27.5025" y1="27.4498" x2="27.7632" y2="20.8907" gradientUnits="userSpaceOnUse">
<stop offset="0" stop-color="#E58200" stop-opacity="0"/>
<stop offset="0.4384" stop-color="#C4602C" stop-opacity="0.439216"/>
<stop offset="0.7953" stop-color="#AE4948" stop-opacity="0.796078"/>
<stop offset="1" stop-color="#A64153"/>
</linearGradient>
<linearGradient id="etc15_linear" x1="28.9942" y1="22.5705" x2="17.9432" y2="13.8146" gradientUnits="userSpaceOnUse">
<stop offset="0" stop-color="#E58200" stop-opacity="0"/>
<stop offset="0.4384" stop-color="#C4602C" stop-opacity="0.439216"/>
<stop offset="0.7953" stop-color="#AE4948" stop-opacity="0.796078"/>
<stop offset="1" stop-color="#A64153"/>
</linearGradient>
<linearGradient id="etc16_linear" x1="30.0763" y1="27.058" x2="21.6332" y2="18.6148" gradientUnits="userSpaceOnUse">
<stop offset="0" stop-color="#E58200" stop-opacity="0"/>
<stop offset="0.4384" stop-color="#C4602C" stop-opacity="0.439216"/>
<stop offset="0.7953" stop-color="#AE4948" stop-opacity="0.796078"/>
<stop offset="1" stop-color="#A64153"/>
</linearGradient>
<linearGradient id="etc17_linear" x1="18.1349" y1="18.0865" x2="25.8976" y2="25.8492" gradientUnits="userSpaceOnUse">
<stop offset="0" stop-color="#FF6E3A"/>
<stop offset="0.1596" stop-color="#FF6440"/>
<stop offset="0.4266" stop-color="#FF4B52"/>
<stop offset="0.7662" stop-color="#FF216E"/>
<stop offset="1" stop-color="#FF0084"/>
</linearGradient>
<linearGradient id="etc18_linear" x1="31.5092" y1="33.4845" x2="31.5092" y2="41.8249" gradientUnits="userSpaceOnUse">
<stop offset="0" stop-color="#45425A"/>
<stop offset="1" stop-color="#2D3251"/>
</linearGradient>
<linearGradient id="etc19_linear" x1="38.4214" y1="33.4845" x2="38.4214" y2="41.8249" gradientUnits="userSpaceOnUse">
<stop offset="0" stop-color="#45425A"/>
<stop offset="1" stop-color="#2D3251"/>
</linearGradient>
<linearGradient id="etc20_linear" x1="45.4511" y1="33.4851" x2="45.4511" y2="41.8255" gradientUnits="userSpaceOnUse">
<stop offset="0" stop-color="#45425A"/>
<stop offset="1" stop-color="#2D3251"/>
</linearGradient>
<linearGradient id="etc21_linear" x1="52.49" y1="33.4845" x2="52.49" y2="41.8249" gradientUnits="userSpaceOnUse">
<stop offset="0" stop-color="#45425A"/>
<stop offset="1" stop-color="#2D3251"/>
</linearGradient>
<linearGradient id="etc22_linear" x1="59.2724" y1="33.4845" x2="59.2724" y2="41.8249" gradientUnits="userSpaceOnUse">
<stop offset="0" stop-color="#45425A"/>
<stop offset="1" stop-color="#2D3251"/>
</linearGradient>
<linearGradient id="etc23_linear" x1="66.3946" y1="33.4845" x2="66.3946" y2="41.8249" gradientUnits="userSpaceOnUse">
<stop offset="0" stop-color="#45425A"/>
<stop offset="1" stop-color="#2D3251"/>
</linearGradient>
<linearGradient id="etc24_linear" x1="72.9201" y1="33.4845" x2="72.9201" y2="41.8249" gradientUnits="userSpaceOnUse">
<stop offset="0" stop-color="#45425A"/>
<stop offset="1" stop-color="#2D3251"/>
</linearGradient>
</defs>
</svg>
