<svg width="29" height="10" viewBox="0 0 29 10" fill="none" focusable='false' xmlns="http://www.w3.org/2000/svg">
<path d="M10.849 1.23654C10.6004 0.892243 10.1937 0.73877 9.82287 0.73877C9.2993 0.73877 8.81171 1.00701 8.59644 1.5822C8.3479 1.00769 8.0002 0.73877 7.44539 0.73877C6.89872 0.73877 6.49331 1.00701 6.27668 1.5822H6.26174V0.987316C6.25631 0.905146 6.18704 0.838595 6.1008 0.8352H5.27367C5.17928 0.8352 5.10254 0.907862 5.10254 0.99886V5.55146C5.10865 5.63295 5.17656 5.69611 5.26145 5.70154H6.14901C6.24341 5.70154 6.31946 5.62752 6.31946 5.5372V3.12304C6.31946 2.59675 6.29366 1.86809 6.93064 1.86809C7.56083 1.86809 7.47866 2.61509 7.47866 3.12304V5.53652C7.47866 5.62412 7.54929 5.69407 7.63893 5.70086H8.52446C8.62021 5.70086 8.69559 5.62684 8.69559 5.53652V3.12304C8.69559 2.86431 8.68744 2.47995 8.77776 2.25042C8.86876 2.02089 9.09353 1.8776 9.30813 1.8776C9.5655 1.8776 9.76379 1.96384 9.82966 2.26943C9.87177 2.45211 9.85479 2.93086 9.85479 3.12304V5.53652C9.85479 5.62412 9.92609 5.69407 10.0144 5.70086H10.9006C10.995 5.70086 11.071 5.62684 11.071 5.53652L11.0724 2.66398C11.0724 2.17572 11.1294 1.61955 10.849 1.23654Z" fill="#FFFBF7"/>
<path d="M22.5381 0.740723C21.2547 0.740723 20.543 1.84288 20.543 3.25946C20.543 4.66788 21.2458 5.79788 22.5381 5.79788C23.7795 5.79788 24.5666 4.6964 24.5666 3.30767C24.57 1.87072 23.8556 0.740723 22.5381 0.740723ZM22.5381 4.85939C21.8427 4.85939 21.8502 3.67166 21.8502 3.11549C21.8502 2.56068 21.8923 1.66971 22.5449 1.66971C22.8261 1.66971 23.0264 1.79331 23.1249 2.11044C23.2417 2.47443 23.258 2.93349 23.258 3.31786C23.2607 3.90187 23.2274 4.85939 22.5381 4.85939Z" fill="#FFFBF7"/>
<path d="M16.0374 4.86958C15.8758 4.64412 15.7047 4.46212 15.7047 4.0472V2.66458C15.7047 2.07989 15.7447 1.54205 15.3135 1.13867C14.9733 0.812032 14.409 0.697266 13.9777 0.697266C13.1343 0.697266 12.1911 1.01168 11.9941 2.05476C11.9731 2.16613 12.0532 2.22453 12.1259 2.24083L12.9856 2.33319C13.0657 2.32979 13.1248 2.25102 13.1404 2.17088C13.2131 1.81165 13.5153 1.63848 13.8535 1.63848C14.0361 1.63848 14.2433 1.70571 14.3499 1.86937C14.4755 2.05137 14.4585 2.30127 14.4585 2.51179L14.4579 2.62451C13.9438 2.68359 13.2715 2.72095 12.79 2.93282C12.2338 3.17254 11.8447 3.66284 11.8447 4.38267C11.8447 5.30419 12.4247 5.76529 13.171 5.76529C13.8012 5.76529 14.1475 5.61657 14.6337 5.12016C14.794 5.35377 14.8476 5.46785 15.1424 5.71232C15.2096 5.74764 15.2945 5.74356 15.3529 5.69195L15.3542 5.69331C15.5315 5.53712 15.8527 5.2553 16.0333 5.10454C16.1046 5.04546 16.0945 4.94903 16.0374 4.86958ZM14.4579 3.52838C14.4579 3.87404 14.4674 4.16197 14.2915 4.46892C14.1516 4.71882 13.9268 4.87161 13.6796 4.87161C13.338 4.87161 13.1384 4.61288 13.1384 4.2292C13.1384 3.47337 13.8161 3.3362 14.4579 3.3362V3.52838Z" fill="#FFFBF7"/>
<path d="M28.6448 1.27495C28.3956 0.882439 28.0051 0.738472 27.6079 0.737793C26.996 0.737793 26.6463 1.03455 26.3991 1.65728H26.3848V0.961213C26.3679 0.889909 26.3027 0.83694 26.2259 0.833545H25.4036C25.3132 0.833545 25.2406 0.898737 25.2324 0.982265L25.2338 5.53622C25.2338 5.62383 25.3037 5.69513 25.394 5.70192H26.2762C26.3719 5.70192 26.4487 5.6279 26.45 5.53622V3.08608C26.45 2.77845 26.4656 2.50206 26.592 2.22364C26.6904 2.00429 26.888 1.85964 27.1053 1.85964C27.7165 1.85964 27.6581 2.58831 27.6581 3.08608V5.55863C27.6649 5.63537 27.7349 5.69513 27.8143 5.7026H28.7046C28.7936 5.7026 28.8649 5.63809 28.8771 5.55863V2.69289C28.8771 2.25216 28.8771 1.6403 28.6448 1.27495Z" fill="#FFFBF7"/>
<path d="M19.9663 4.46883C19.457 4.18225 18.8655 4.09804 18.3032 4.11231L19.8162 1.95552C19.9554 1.76131 20.0349 1.63975 20.0349 1.54604V0.988504C20.0349 0.890716 19.9608 0.823486 19.8665 0.823486H16.9511C16.8601 0.823486 16.7868 0.889358 16.7868 0.988504V1.63975C16.7868 1.73686 16.8601 1.80341 16.9552 1.80341H18.4791L16.7284 4.31331C16.6225 4.47426 16.6211 4.6549 16.6211 4.76083V5.42158C16.6211 5.51666 16.7291 5.62599 16.8296 5.5703C17.8217 5.04401 19.0115 5.0963 19.9079 5.56623C20.0192 5.62327 20.1225 5.5119 20.1225 5.41683V4.72145C20.1123 4.62841 20.0817 4.53266 19.9663 4.46883Z" fill="#FFFBF7"/>
<path d="M19.3995 6.11814C19.2182 5.89336 17.6563 5.69982 16.7036 6.36872C16.5582 6.47127 16.582 6.6132 16.7457 6.59418C17.2815 6.53103 18.4766 6.38774 18.6885 6.65937C18.9011 6.93169 18.4515 8.05626 18.2498 8.55742C18.188 8.70954 18.3198 8.77066 18.457 8.65657C19.3527 7.91093 19.5822 6.34496 19.3995 6.11814Z" fill="#FF8000"/>
<path d="M17.7618 7.06085C15.8956 7.85334 13.8658 8.23499 12.0187 8.23499C9.28403 8.23499 6.63356 7.48596 4.4924 6.23915C4.30565 6.12914 4.16643 6.32132 4.32194 6.46189C6.30692 8.25536 8.93023 9.33375 11.8442 9.33375C13.9236 9.33375 16.3364 8.67979 18.0028 7.452C18.2779 7.24828 18.0436 6.94269 17.7618 7.06085Z" fill="#FF8000"/>
<path d="M4.40821 4.86982C4.24591 4.64437 4.0741 4.46237 4.0741 4.04745V2.66482C4.0741 2.08013 4.11552 1.54229 3.6843 1.13892C3.3434 0.812276 2.77976 0.69751 2.34718 0.69751C1.50375 0.69751 0.562536 1.01193 0.363564 2.05501C0.343191 2.16638 0.424682 2.22478 0.495307 2.24108L1.35775 2.33343C1.43652 2.33004 1.4956 2.25126 1.51122 2.17113C1.58388 1.81189 1.88676 1.63872 2.22494 1.63872C2.40694 1.63872 2.61338 1.70595 2.72203 1.86961C2.84563 2.05161 2.82865 2.30151 2.82865 2.51203V2.62612C2.31526 2.68588 1.64296 2.72323 1.16081 2.9351C0.606677 3.17346 0.214844 3.66376 0.214844 4.38359C0.214844 5.30512 0.796142 5.76622 1.54246 5.76622C2.17401 5.76622 2.51899 5.6175 3.00521 5.12108C3.16616 5.35469 3.21913 5.46878 3.51385 5.71325C3.5804 5.74856 3.66461 5.74449 3.72369 5.69288L3.7264 5.69423C3.90297 5.53804 4.22417 5.25622 4.40617 5.10547C4.47815 5.04435 4.46593 4.94928 4.40821 4.86982ZM2.82865 3.52862C2.82865 3.87428 2.83816 4.16221 2.66295 4.46916C2.52238 4.71906 2.29896 4.87186 2.04906 4.87186C1.70884 4.87186 1.51122 4.61313 1.51122 4.22944C1.51122 3.47362 2.18827 3.33644 2.82865 3.33644V3.52862Z" fill="#FFFBF7"/>
</svg>
