<svg class='visually-hidden' width='0' height='0' aria-hidden='true' focusable='false' xmlns="http://www.w3.org/2000/svg">
<defs>
  <symbol width="100%" height="100%" viewBox="0 0 41 33" id="logo--icon">
    <path d="M26.2509 30.6042H35.5233C37.5204 30.6042 39.0896 28.7971 39.0896 26.6888C39.0896 24.5806 37.5204 22.7735 35.5233 22.7735C34.81 22.7735 34.0968 22.7735 33.3835 22.7735C36.2366 16.2982 34.81 1.99219 21.9713 1.99219C13.4122 1.99219 9.13262 7.26282 9.13262 17.9547H7.70609C4.56774 17.9547 2 20.8159 2 24.2794C2 27.743 4.56774 30.6042 7.70609 30.6042H14.8387H26.2509Z" fill='none' stroke-width="3" stroke-linecap="round" stroke-linejoin="round"/>
    <path d="M21.8473 15.9355L19.6186 16.68L18.5354 13.4375L20.7287 12.7048C21.1754 12.5555 21.6486 12.5865 22.0646 12.7895L22.0648 12.7896C22.4806 12.9922 22.7858 13.3404 22.9299 13.7718C23.074 14.2031 23.0393 14.6644 22.8288 15.0764L22.8285 15.0768C22.6237 15.4786 22.2779 15.7819 21.8473 15.9355ZM16.7273 14.0407L17.0533 13.9318L19.8872 22.4145L19.5612 22.5234C19.1601 22.6575 18.9276 23.0928 19.0661 23.5074C19.2046 23.922 19.6521 24.1301 20.0532 23.9961L21.9738 23.3545L22.0778 23.6658C22.2163 24.0804 22.6638 24.2886 23.0649 24.1546C23.466 24.0206 23.6985 23.5852 23.56 23.1706L23.456 22.8593L23.5856 22.816L23.6896 23.1273C23.8281 23.542 24.2755 23.7501 24.6767 23.6161C25.0787 23.4818 25.3096 23.046 25.1714 22.6323L25.0652 22.3145C26.8053 21.6131 27.7398 19.6879 27.1416 17.8972C26.7098 16.6049 25.5972 15.7367 24.331 15.5359C24.6185 14.8403 24.6683 14.0447 24.4118 13.2767C23.9559 11.9122 22.6769 11.0604 21.3048 11.0585L21.1454 10.5812L21.1453 10.5811C21.0071 10.1674 20.5603 9.95852 20.1588 10.0927C19.7581 10.2265 19.525 10.6615 19.6635 11.0762L19.7679 11.3887L19.6383 11.432L19.534 11.1196C19.5339 11.1196 19.5339 11.1195 19.5339 11.1195C19.3954 10.7048 18.9476 10.4973 18.547 10.6311C18.1463 10.765 17.9132 11.2 18.0517 11.6147L18.1561 11.9271L17.873 12.0217L17.8727 12.021L17.3985 12.1794L16.2353 12.568C15.8341 12.702 15.6017 13.1374 15.7402 13.5519C15.8787 13.9665 16.3261 14.1747 16.7273 14.0407ZM25.5424 19.9089L25.5423 19.9091C25.2982 20.3878 24.8809 20.7462 24.3626 20.9194L21.369 21.9195L20.1107 18.1531L22.3041 17.4204C22.3213 17.4146 22.3378 17.4086 22.3491 17.4045L23.104 17.1523C23.622 16.9792 24.1713 17.0153 24.6545 17.2511L24.6547 17.2512C25.1375 17.4865 25.4923 17.891 25.6597 18.3923C25.8273 18.8938 25.7868 19.43 25.5424 19.9089Z"/>
  </symbol>
  <symbol width="98" height="17" viewBox="0 0 98 17" id="logo--text">
    <path d="M0.566406 9.09426C0.566406 7.6905 0.884847 6.43124 1.52173 5.31649C2.15861 4.18797 3.02394 3.30718 4.11771 2.67411C5.22533 2.04104 6.45064 1.72451 7.79362 1.72451C9.37198 1.72451 10.7496 2.10297 11.9264 2.8599C13.1033 3.61684 13.9617 4.6903 14.5016 6.0803H12.2379C11.8364 5.21327 11.2549 4.5458 10.4934 4.07787C9.7458 3.60995 8.84586 3.37599 7.79362 3.37599C6.78292 3.37599 5.87606 3.60995 5.07303 4.07787C4.27001 4.5458 3.64005 5.21327 3.18316 6.0803C2.72626 6.93357 2.49782 7.93822 2.49782 9.09426C2.49782 10.2365 2.72626 11.2412 3.18316 12.1082C3.64005 12.9615 4.27001 13.6221 5.07303 14.09C5.87606 14.5579 6.78292 14.7919 7.79362 14.7919C8.84586 14.7919 9.7458 14.5648 10.4934 14.1107C11.2549 13.6427 11.8364 12.9753 12.2379 12.1082H14.5016C13.9617 13.4845 13.1033 14.551 11.9264 15.308C10.7496 16.0511 9.37198 16.4227 7.79362 16.4227C6.45064 16.4227 5.22533 16.1131 4.11771 15.4938C3.02394 14.8607 2.15861 13.9868 1.52173 12.872C0.884847 11.7573 0.566406 10.498 0.566406 9.09426Z"/>
    <path d="M22.2784 16.4847C21.2123 16.4847 20.2431 16.2438 19.3709 15.7621C18.5125 15.2805 17.8341 14.5992 17.3356 13.7184C16.8511 12.8239 16.6088 11.7917 16.6088 10.6219C16.6088 9.46585 16.858 8.44743 17.3564 7.56664C17.8687 6.67208 18.561 5.99085 19.4332 5.52292C20.3055 5.04124 21.2815 4.8004 22.3615 4.8004C23.4414 4.8004 24.4175 5.04124 25.2897 5.52292C26.162 5.99085 26.8473 6.6652 27.3458 7.54599C27.858 8.42679 28.1142 9.45208 28.1142 10.6219C28.1142 11.7917 27.8511 12.8239 27.325 13.7184C26.8127 14.5992 26.1135 15.2805 25.2274 15.7621C24.3413 16.2438 23.3583 16.4847 22.2784 16.4847ZM22.2784 14.8332C22.9568 14.8332 23.5937 14.6749 24.189 14.3584C24.7844 14.0418 25.2621 13.567 25.622 12.934C25.9958 12.3009 26.1828 11.5302 26.1828 10.6219C26.1828 9.71357 26.0028 8.94288 25.6428 8.30981C25.2828 7.67674 24.8121 7.20882 24.2306 6.90604C23.6491 6.58951 23.0191 6.43124 22.3407 6.43124C21.6484 6.43124 21.0116 6.58951 20.4301 6.90604C19.8624 7.20882 19.4055 7.67674 19.0594 8.30981C18.7132 8.94288 18.5402 9.71357 18.5402 10.6219C18.5402 11.544 18.7063 12.3215 19.0386 12.9546C19.3847 13.5877 19.8416 14.0625 20.4093 14.379C20.9769 14.6818 21.6 14.8332 22.2784 14.8332Z"/>
    <path d="M31.5751 3.14891C31.2151 3.14891 30.9105 3.02505 30.6613 2.77733C30.4121 2.52961 30.2875 2.22683 30.2875 1.86901C30.2875 1.51119 30.4121 1.20842 30.6613 0.960696C30.9105 0.712973 31.2151 0.589111 31.5751 0.589111C31.9212 0.589111 32.212 0.712973 32.4474 0.960696C32.6966 1.20842 32.8212 1.51119 32.8212 1.86901C32.8212 2.22683 32.6966 2.52961 32.4474 2.77733C32.212 3.02505 31.9212 3.14891 31.5751 3.14891ZM32.4889 4.98619V16.2989H30.599V4.98619H32.4889Z"/>
    <path d="M41.2549 4.77976C42.6394 4.77976 43.7609 5.19951 44.6193 6.03901C45.4777 6.86476 45.9069 8.06208 45.9069 9.63099V16.2989H44.0378V9.89936C44.0378 8.77085 43.7539 7.9107 43.1863 7.31891C42.6186 6.71337 41.8433 6.4106 40.8603 6.4106C39.8634 6.4106 39.0673 6.72025 38.472 7.33956C37.8905 7.95887 37.5997 8.8603 37.5997 10.0439V16.2989H35.7099V4.98619H37.5997V6.59639C37.9736 6.01837 38.4789 5.57109 39.1158 5.25456C39.7665 4.93802 40.4795 4.77976 41.2549 4.77976Z"/>
    <path d="M56.242 8.88783C56.7681 8.9704 57.2458 9.18372 57.675 9.52778C58.118 9.87184 58.4641 10.2985 58.7133 10.8077C58.9764 11.3169 59.1079 11.8605 59.1079 12.4385C59.1079 13.1679 58.921 13.8285 58.5472 14.4203C58.1734 14.9983 57.6265 15.4594 56.9065 15.8034C56.2004 16.1337 55.3628 16.2989 54.3936 16.2989H48.994V1.9103H54.186C55.169 1.9103 56.0066 2.07545 56.6989 2.40575C57.3911 2.72228 57.9103 3.1558 58.2565 3.70629C58.6026 4.25679 58.7757 4.87609 58.7757 5.56421C58.7757 6.41748 58.5403 7.12624 58.0695 7.6905C57.6127 8.24099 57.0035 8.6401 56.242 8.88783ZM50.8839 8.12401H54.0613C54.9474 8.12401 55.6328 7.91758 56.1174 7.50471C56.602 7.09184 56.8442 6.5207 56.8442 5.79129C56.8442 5.06188 56.602 4.49075 56.1174 4.07787C55.6328 3.665 54.9336 3.45857 54.0198 3.45857H50.8839V8.12401ZM54.2275 14.7506C55.169 14.7506 55.9028 14.5304 56.4289 14.09C56.955 13.6496 57.2181 13.0372 57.2181 12.2527C57.2181 11.4545 56.9412 10.8283 56.3873 10.3742C55.8335 9.90624 55.0928 9.67228 54.1652 9.67228H50.8839V14.7506H54.2275Z"/>
    <path d="M61.0244 10.6012C61.0244 9.4452 61.2598 8.43367 61.7305 7.56664C62.2013 6.68585 62.8451 6.00461 63.6619 5.52292C64.4927 5.04124 65.4134 4.8004 66.4241 4.8004C67.4209 4.8004 68.2863 5.01372 69.0201 5.44035C69.7538 5.86698 70.3007 6.40372 70.6607 7.05055V4.98619H72.5714V16.2989H70.6607V14.1932C70.2869 14.8538 69.7262 15.4043 68.9785 15.8447C68.2447 16.2713 67.3863 16.4847 66.4033 16.4847C65.3926 16.4847 64.4788 16.2369 63.6619 15.7415C62.8451 15.246 62.2013 14.551 61.7305 13.6565C61.2598 12.7619 61.0244 11.7435 61.0244 10.6012ZM70.6607 10.6219C70.6607 9.76862 70.4876 9.02545 70.1415 8.39238C69.7954 7.75931 69.3246 7.27763 68.7293 6.94733C68.1478 6.60327 67.504 6.43124 66.7979 6.43124C66.0918 6.43124 65.448 6.59639 64.8665 6.92669C64.285 7.25698 63.8212 7.73867 63.475 8.37174C63.1289 9.00481 62.9558 9.74798 62.9558 10.6012C62.9558 11.4683 63.1289 12.2252 63.475 12.872C63.8212 13.5051 64.285 13.9937 64.8665 14.3377C65.448 14.668 66.0918 14.8332 66.7979 14.8332C67.504 14.8332 68.1478 14.668 68.7293 14.3377C69.3246 13.9937 69.7954 13.5051 70.1415 12.872C70.4876 12.2252 70.6607 11.4752 70.6607 10.6219Z"/>
    <path d="M79.794 16.4847C78.9218 16.4847 78.1395 16.3402 77.4473 16.0511C76.755 15.7484 76.2081 15.3355 75.8066 14.8125C75.4051 14.2758 75.1836 13.6634 75.142 12.9753H77.0942C77.1496 13.5395 77.4127 14.0006 77.8834 14.3584C78.368 14.7162 78.9979 14.8951 79.7733 14.8951C80.4932 14.8951 81.0609 14.7368 81.4762 14.4203C81.8916 14.1038 82.0993 13.7047 82.0993 13.223C82.0993 12.7275 81.8777 12.3628 81.4347 12.1289C80.9916 11.8811 80.3063 11.6403 79.3787 11.4063C78.5341 11.1861 77.8419 10.9659 77.3019 10.7457C76.7758 10.5118 76.3189 10.1746 75.9312 9.73421C75.5574 9.28005 75.3705 8.68827 75.3705 7.95887C75.3705 7.38085 75.5435 6.85099 75.8897 6.36931C76.2358 5.88763 76.7273 5.50916 77.3642 5.23391C78.0011 4.9449 78.7279 4.8004 79.5448 4.8004C80.8047 4.8004 81.8224 5.11693 82.5977 5.75C83.373 6.38307 83.7884 7.2501 83.8438 8.35109H81.9539C81.9124 7.75931 81.6701 7.28451 81.227 6.92669C80.7978 6.56887 80.2163 6.38995 79.4825 6.38995C78.8041 6.38995 78.2641 6.53446 77.8626 6.82347C77.4611 7.11248 77.2604 7.49094 77.2604 7.95887C77.2604 8.33045 77.378 8.6401 77.6134 8.88783C77.8626 9.12179 78.1672 9.31446 78.5272 9.46585C78.901 9.60347 79.4133 9.76174 80.064 9.94065C80.8809 10.1608 81.5455 10.381 82.0577 10.6012C82.57 10.8077 83.0061 11.1242 83.3661 11.5508C83.7399 11.9775 83.9338 12.5349 83.9476 13.223C83.9476 13.8423 83.7745 14.3997 83.4284 14.8951C83.0823 15.3905 82.5908 15.7828 81.9539 16.0718C81.3308 16.347 80.6109 16.4847 79.794 16.4847Z"/>
    <path d="M96.9994 10.209C96.9994 10.5668 96.9786 10.9453 96.9371 11.3444H87.8408C87.91 12.4592 88.2907 13.3331 88.983 13.9661C89.6891 14.5855 90.5406 14.8951 91.5374 14.8951C92.3543 14.8951 93.0327 14.7093 93.5727 14.3377C94.1265 13.9524 94.5142 13.4432 94.7357 12.8101H96.771C96.4664 13.8973 95.8572 14.785 94.9434 15.4731C94.0296 16.1475 92.8943 16.4847 91.5374 16.4847C90.4575 16.4847 89.4883 16.2438 88.6299 15.7621C87.7854 15.2805 87.1208 14.5992 86.6362 13.7184C86.1516 12.8239 85.9094 11.7917 85.9094 10.6219C85.9094 9.45208 86.1447 8.42679 86.6155 7.54599C87.0862 6.6652 87.7439 5.99085 88.5884 5.52292C89.4468 5.04124 90.4298 4.8004 91.5374 4.8004C92.6174 4.8004 93.5727 5.03436 94.4034 5.50228C95.2341 5.9702 95.871 6.61703 96.3141 7.44278C96.771 8.25476 96.9994 9.17684 96.9994 10.209ZM95.0472 9.81679C95.0472 9.10114 94.888 8.48872 94.5696 7.97951C94.2511 7.45654 93.815 7.06431 93.2612 6.80283C92.7212 6.52758 92.1189 6.38995 91.4544 6.38995C90.4991 6.38995 89.6822 6.69273 89.0038 7.29827C88.3392 7.90382 87.9585 8.74332 87.8615 9.81679H95.0472Z"/>
  </symbol>
  <linearGradient id="icon-logo-gradient" x1="22.3993" y1="-2.51155" x2="23.6451" y2="48.1948" gradientUnits="userSpaceOnUse">
    <stop offset="0" stop-color="#FD749B"/>
    <stop offset="1" stop-color="#281AC8"/>
  </linearGradient>
</defs>
</svg>